<svg width="140" height="46" viewBox="0 0 140 46" fill="none" xmlns="http://www.w3.org/2000/svg">
<rect width="140" height="46" rx="10" fill="#86B6F6"/>
<path d="M38.14 30.12C37.1 30.12 36.1 29.9533 35.14 29.62C34.1933 29.2733 33.46 28.8333 32.94 28.3L33.52 27.16C34.0133 27.64 34.6733 28.0467 35.5 28.38C36.34 28.7 37.22 28.86 38.14 28.86C39.02 28.86 39.7333 28.7533 40.28 28.54C40.84 28.3133 41.2467 28.0133 41.5 27.64C41.7667 27.2667 41.9 26.8533 41.9 26.4C41.9 25.8533 41.74 25.4133 41.42 25.08C41.1133 24.7467 40.7067 24.4867 40.2 24.3C39.6933 24.1 39.1333 23.9267 38.52 23.78C37.9067 23.6333 37.2933 23.48 36.68 23.32C36.0667 23.1467 35.5 22.92 34.98 22.64C34.4733 22.36 34.06 21.9933 33.74 21.54C33.4333 21.0733 33.28 20.4667 33.28 19.72C33.28 19.0267 33.46 18.3933 33.82 17.82C34.1933 17.2333 34.76 16.7667 35.52 16.42C36.28 16.06 37.2533 15.88 38.44 15.88C39.2267 15.88 40.0067 15.9933 40.78 16.22C41.5533 16.4333 42.22 16.7333 42.78 17.12L42.28 18.3C41.68 17.9 41.04 17.6067 40.36 17.42C39.6933 17.2333 39.0467 17.14 38.42 17.14C37.58 17.14 36.8867 17.2533 36.34 17.48C35.7933 17.7067 35.3867 18.0133 35.12 18.4C34.8667 18.7733 34.74 19.2 34.74 19.68C34.74 20.2267 34.8933 20.6667 35.2 21C35.52 21.3333 35.9333 21.5933 36.44 21.78C36.96 21.9667 37.5267 22.1333 38.14 22.28C38.7533 22.4267 39.36 22.5867 39.96 22.76C40.5733 22.9333 41.1333 23.16 41.64 23.44C42.16 23.7067 42.5733 24.0667 42.88 24.52C43.2 24.9733 43.36 25.5667 43.36 26.3C43.36 26.98 43.1733 27.6133 42.8 28.2C42.4267 28.7733 41.8533 29.24 41.08 29.6C40.32 29.9467 39.34 30.12 38.14 30.12ZM46.2847 30V19.5H47.7047V30H46.2847ZM47.0047 17.18C46.7114 17.18 46.4647 17.08 46.2647 16.88C46.0647 16.68 45.9647 16.44 45.9647 16.16C45.9647 15.88 46.0647 15.6467 46.2647 15.46C46.4647 15.26 46.7114 15.16 47.0047 15.16C47.298 15.16 47.5447 15.2533 47.7447 15.44C47.9447 15.6267 48.0447 15.86 48.0447 16.14C48.0447 16.4333 47.9447 16.68 47.7447 16.88C47.558 17.08 47.3114 17.18 47.0047 17.18ZM64.7758 19.4C65.6291 19.4 66.3691 19.5667 66.9958 19.9C67.6358 20.22 68.1291 20.7133 68.4758 21.38C68.8358 22.0467 69.0158 22.8867 69.0158 23.9V30H67.5958V24.04C67.5958 22.9333 67.3291 22.1 66.7958 21.54C66.2758 20.9667 65.5358 20.68 64.5758 20.68C63.8558 20.68 63.2291 20.8333 62.6958 21.14C62.1758 21.4333 61.7691 21.8667 61.4758 22.44C61.1958 23 61.0558 23.68 61.0558 24.48V30H59.6358V24.04C59.6358 22.9333 59.3691 22.1 58.8358 21.54C58.3024 20.9667 57.5558 20.68 56.5958 20.68C55.8891 20.68 55.2691 20.8333 54.7358 21.14C54.2024 21.4333 53.7891 21.8667 53.4958 22.44C53.2158 23 53.0758 23.68 53.0758 24.48V30H51.6558V19.5H53.0158V22.34L52.7958 21.84C53.1158 21.08 53.6291 20.4867 54.3358 20.06C55.0558 19.62 55.9024 19.4 56.8758 19.4C57.9024 19.4 58.7758 19.66 59.4958 20.18C60.2158 20.6867 60.6824 21.4533 60.8958 22.48L60.3358 22.26C60.6424 21.4067 61.1824 20.72 61.9558 20.2C62.7424 19.6667 63.6824 19.4 64.7758 19.4ZM78.2867 30.1C77.3801 30.1 76.5601 29.8933 75.8267 29.48C75.0934 29.0533 74.5067 28.4467 74.0667 27.66C73.6401 26.86 73.4267 25.8867 73.4267 24.74C73.4267 23.5933 73.6401 22.6267 74.0667 21.84C74.4934 21.04 75.0734 20.4333 75.8067 20.02C76.5401 19.6067 77.3667 19.4 78.2867 19.4C79.2867 19.4 80.1801 19.6267 80.9667 20.08C81.7667 20.52 82.3934 21.1467 82.8467 21.96C83.3001 22.76 83.5267 23.6867 83.5267 24.74C83.5267 25.8067 83.3001 26.74 82.8467 27.54C82.3934 28.34 81.7667 28.9667 80.9667 29.42C80.1801 29.8733 79.2867 30.1 78.2867 30.1ZM72.8667 33.88V19.5H74.2267V22.66L74.0867 24.76L74.2867 26.88V33.88H72.8667ZM78.1867 28.84C78.9334 28.84 79.6001 28.6733 80.1867 28.34C80.7734 27.9933 81.2401 27.5133 81.5867 26.9C81.9334 26.2733 82.1067 25.5533 82.1067 24.74C82.1067 23.9267 81.9334 23.2133 81.5867 22.6C81.2401 21.9867 80.7734 21.5067 80.1867 21.16C79.6001 20.8133 78.9334 20.64 78.1867 20.64C77.4401 20.64 76.7667 20.8133 76.1667 21.16C75.5801 21.5067 75.1134 21.9867 74.7667 22.6C74.4334 23.2133 74.2667 23.9267 74.2667 24.74C74.2667 25.5533 74.4334 26.2733 74.7667 26.9C75.1134 27.5133 75.5801 27.9933 76.1667 28.34C76.7667 28.6733 77.4401 28.84 78.1867 28.84ZM92.9428 30V27.68L92.8828 27.3V23.42C92.8828 22.5267 92.6295 21.84 92.1228 21.36C91.6295 20.88 90.8895 20.64 89.9028 20.64C89.2228 20.64 88.5761 20.7533 87.9628 20.98C87.3495 21.2067 86.8295 21.5067 86.4028 21.88L85.7628 20.82C86.2961 20.3667 86.9361 20.02 87.6828 19.78C88.4295 19.5267 89.2161 19.4 90.0428 19.4C91.4028 19.4 92.4495 19.74 93.1828 20.42C93.9295 21.0867 94.3028 22.1067 94.3028 23.48V30H92.9428ZM89.3228 30.1C88.5361 30.1 87.8495 29.9733 87.2628 29.72C86.6895 29.4533 86.2495 29.0933 85.9428 28.64C85.6361 28.1733 85.4828 27.64 85.4828 27.04C85.4828 26.4933 85.6095 26 85.8628 25.56C86.1295 25.1067 86.5561 24.7467 87.1428 24.48C87.7428 24.2 88.5428 24.06 89.5428 24.06H93.1628V25.12H89.5828C88.5695 25.12 87.8628 25.3 87.4628 25.66C87.0761 26.02 86.8828 26.4667 86.8828 27C86.8828 27.6 87.1161 28.08 87.5828 28.44C88.0495 28.8 88.7028 28.98 89.5428 28.98C90.3428 28.98 91.0295 28.8 91.6028 28.44C92.1895 28.0667 92.6161 27.5333 92.8828 26.84L93.2028 27.82C92.9361 28.5133 92.4695 29.0667 91.8028 29.48C91.1495 29.8933 90.3228 30.1 89.3228 30.1ZM103.52 19.4C104.373 19.4 105.12 19.5667 105.76 19.9C106.413 20.22 106.92 20.7133 107.28 21.38C107.653 22.0467 107.84 22.8867 107.84 23.9V30H106.42V24.04C106.42 22.9333 106.14 22.1 105.58 21.54C105.033 20.9667 104.26 20.68 103.26 20.68C102.513 20.68 101.86 20.8333 101.3 21.14C100.753 21.4333 100.326 21.8667 100.02 22.44C99.7264 23 99.5797 23.68 99.5797 24.48V30H98.1597V19.5H99.5197V22.38L99.2997 21.84C99.633 21.08 100.166 20.4867 100.9 20.06C101.633 19.62 102.506 19.4 103.52 19.4Z" fill="white"/>
</svg>
