<svg width="273" height="41" viewBox="0 0 273 41" fill="none" xmlns="http://www.w3.org/2000/svg">
<rect x="0.5" y="0.5" width="272" height="40" rx="19.5" fill="#EEF5FF" stroke="#04114E"/>
<path d="M73.192 26V18.048H70.056V16.2H78.596V18.048H75.46V26H73.192ZM82.6762 26.112C82.0509 26.112 81.4909 25.9907 80.9962 25.748C80.5109 25.5053 80.1329 25.1367 79.8622 24.642C79.5916 24.138 79.4562 23.4987 79.4562 22.724V18.468H81.6402V22.402C81.6402 23.0273 81.7709 23.4893 82.0322 23.788C82.3029 24.0773 82.6809 24.222 83.1662 24.222C83.5022 24.222 83.8009 24.152 84.0622 24.012C84.3236 23.8627 84.5289 23.6387 84.6782 23.34C84.8276 23.032 84.9022 22.6493 84.9022 22.192V18.468H87.0862V26H85.0142V23.928L85.3922 24.53C85.1402 25.0527 84.7669 25.4493 84.2722 25.72C83.7869 25.9813 83.2549 26.112 82.6762 26.112ZM93.5616 26.112C92.8989 26.112 92.3296 25.972 91.8536 25.692C91.3776 25.412 91.0136 24.9873 90.7616 24.418C90.5096 23.8393 90.3836 23.1113 90.3836 22.234C90.3836 21.3473 90.5142 20.6193 90.7756 20.05C91.0462 19.4807 91.4196 19.056 91.8956 18.776C92.3716 18.496 92.9269 18.356 93.5616 18.356C94.2709 18.356 94.9056 18.5147 95.4656 18.832C96.0349 19.1493 96.4829 19.5973 96.8096 20.176C97.1456 20.7547 97.3136 21.4407 97.3136 22.234C97.3136 23.018 97.1456 23.6993 96.8096 24.278C96.4829 24.8567 96.0349 25.3093 95.4656 25.636C94.9056 25.9533 94.2709 26.112 93.5616 26.112ZM89.1096 26V15.612H91.2936V19.994L91.1536 22.22L91.1956 24.46V26H89.1096ZM93.1836 24.32C93.5476 24.32 93.8696 24.236 94.1496 24.068C94.4389 23.9 94.6676 23.662 94.8356 23.354C95.0129 23.0367 95.1016 22.6633 95.1016 22.234C95.1016 21.7953 95.0129 21.422 94.8356 21.114C94.6676 20.806 94.4389 20.568 94.1496 20.4C93.8696 20.232 93.5476 20.148 93.1836 20.148C92.8196 20.148 92.4929 20.232 92.2036 20.4C91.9142 20.568 91.6856 20.806 91.5176 21.114C91.3496 21.422 91.2656 21.7953 91.2656 22.234C91.2656 22.6633 91.3496 23.0367 91.5176 23.354C91.6856 23.662 91.9142 23.9 92.2036 24.068C92.4929 24.236 92.8196 24.32 93.1836 24.32ZM103.273 26V24.53L103.133 24.208V21.576C103.133 21.1093 102.988 20.7453 102.699 20.484C102.419 20.2227 101.985 20.092 101.397 20.092C100.995 20.092 100.599 20.1573 100.207 20.288C99.8239 20.4093 99.4972 20.5773 99.2265 20.792L98.4425 19.266C98.8532 18.9767 99.3479 18.7527 99.9265 18.594C100.505 18.4353 101.093 18.356 101.691 18.356C102.839 18.356 103.73 18.6267 104.365 19.168C104.999 19.7093 105.317 20.554 105.317 21.702V26H103.273ZM100.977 26.112C100.389 26.112 99.8845 26.014 99.4645 25.818C99.0445 25.6127 98.7225 25.3373 98.4985 24.992C98.2745 24.6467 98.1625 24.2593 98.1625 23.83C98.1625 23.382 98.2699 22.99 98.4845 22.654C98.7085 22.318 99.0585 22.0567 99.5345 21.87C100.011 21.674 100.631 21.576 101.397 21.576H103.399V22.85H101.635C101.121 22.85 100.767 22.934 100.571 23.102C100.384 23.27 100.291 23.48 100.291 23.732C100.291 24.012 100.398 24.236 100.613 24.404C100.837 24.5627 101.14 24.642 101.523 24.642C101.887 24.642 102.213 24.558 102.503 24.39C102.792 24.2127 103.002 23.956 103.133 23.62L103.469 24.628C103.31 25.1133 103.021 25.482 102.601 25.734C102.181 25.986 101.639 26.112 100.977 26.112ZM111.871 18.356C112.468 18.356 113 18.4773 113.467 18.72C113.943 18.9533 114.316 19.3173 114.587 19.812C114.858 20.2973 114.993 20.9227 114.993 21.688V26H112.809V22.024C112.809 21.4173 112.674 20.9693 112.403 20.68C112.142 20.3907 111.768 20.246 111.283 20.246C110.938 20.246 110.625 20.3207 110.345 20.47C110.074 20.61 109.86 20.8293 109.701 21.128C109.552 21.4267 109.477 21.8093 109.477 22.276V26H107.293V18.468H109.379V20.554L108.987 19.924C109.258 19.42 109.645 19.0327 110.149 18.762C110.653 18.4913 111.227 18.356 111.871 18.356ZM119.479 26L116.273 16.2H118.625L121.411 24.88H120.235L123.147 16.2H125.247L128.047 24.88H126.913L129.769 16.2H131.939L128.733 26H126.297L123.819 18.384H124.463L121.915 26H119.479ZM136.228 26.112C135.37 26.112 134.614 25.944 133.96 25.608C133.316 25.272 132.817 24.8147 132.462 24.236C132.108 23.648 131.93 22.9807 131.93 22.234C131.93 21.478 132.103 20.8107 132.448 20.232C132.803 19.644 133.284 19.1867 133.89 18.86C134.497 18.524 135.183 18.356 135.948 18.356C136.686 18.356 137.348 18.5147 137.936 18.832C138.534 19.14 139.005 19.588 139.35 20.176C139.696 20.7547 139.868 21.45 139.868 22.262C139.868 22.346 139.864 22.444 139.854 22.556C139.845 22.6587 139.836 22.7567 139.826 22.85H133.708V21.576H138.678L137.838 21.954C137.838 21.562 137.759 21.2213 137.6 20.932C137.442 20.6427 137.222 20.4187 136.942 20.26C136.662 20.092 136.336 20.008 135.962 20.008C135.589 20.008 135.258 20.092 134.968 20.26C134.688 20.4187 134.469 20.6473 134.31 20.946C134.152 21.2353 134.072 21.5807 134.072 21.982V22.318C134.072 22.7287 134.161 23.0927 134.338 23.41C134.525 23.718 134.782 23.956 135.108 24.124C135.444 24.2827 135.836 24.362 136.284 24.362C136.686 24.362 137.036 24.3013 137.334 24.18C137.642 24.0587 137.922 23.8767 138.174 23.634L139.336 24.894C138.991 25.286 138.557 25.5893 138.034 25.804C137.512 26.0093 136.91 26.112 136.228 26.112ZM145.774 26.112C145.112 26.112 144.542 25.972 144.066 25.692C143.59 25.412 143.226 24.9873 142.974 24.418C142.722 23.8393 142.596 23.1113 142.596 22.234C142.596 21.3473 142.727 20.6193 142.988 20.05C143.259 19.4807 143.632 19.056 144.108 18.776C144.584 18.496 145.14 18.356 145.774 18.356C146.484 18.356 147.118 18.5147 147.678 18.832C148.248 19.1493 148.696 19.5973 149.022 20.176C149.358 20.7547 149.526 21.4407 149.526 22.234C149.526 23.018 149.358 23.6993 149.022 24.278C148.696 24.8567 148.248 25.3093 147.678 25.636C147.118 25.9533 146.484 26.112 145.774 26.112ZM141.322 26V15.612H143.506V19.994L143.366 22.22L143.408 24.46V26H141.322ZM145.396 24.32C145.76 24.32 146.082 24.236 146.362 24.068C146.652 23.9 146.88 23.662 147.048 23.354C147.226 23.0367 147.314 22.6633 147.314 22.234C147.314 21.7953 147.226 21.422 147.048 21.114C146.88 20.806 146.652 20.568 146.362 20.4C146.082 20.232 145.76 20.148 145.396 20.148C145.032 20.148 144.706 20.232 144.416 20.4C144.127 20.568 143.898 20.806 143.73 21.114C143.562 21.422 143.478 21.7953 143.478 22.234C143.478 22.6633 143.562 23.0367 143.73 23.354C143.898 23.662 144.127 23.9 144.416 24.068C144.706 24.236 145.032 24.32 145.396 24.32ZM154.726 26.168C153.924 26.168 153.205 25.972 152.57 25.58C151.936 25.1787 151.436 24.6 151.072 23.844C150.708 23.088 150.526 22.1733 150.526 21.1C150.526 20.0267 150.708 19.112 151.072 18.356C151.436 17.6 151.936 17.026 152.57 16.634C153.205 16.2327 153.924 16.032 154.726 16.032C155.538 16.032 156.257 16.2327 156.882 16.634C157.517 17.026 158.016 17.6 158.38 18.356C158.744 19.112 158.926 20.0267 158.926 21.1C158.926 22.1733 158.744 23.088 158.38 23.844C158.016 24.6 157.517 25.1787 156.882 25.58C156.257 25.972 155.538 26.168 154.726 26.168ZM154.726 24.25C155.109 24.25 155.44 24.1427 155.72 23.928C156.01 23.7133 156.234 23.3727 156.392 22.906C156.56 22.4393 156.644 21.8373 156.644 21.1C156.644 20.3627 156.56 19.7607 156.392 19.294C156.234 18.8273 156.01 18.4867 155.72 18.272C155.44 18.0573 155.109 17.95 154.726 17.95C154.353 17.95 154.022 18.0573 153.732 18.272C153.452 18.4867 153.228 18.8273 153.06 19.294C152.902 19.7607 152.822 20.3627 152.822 21.1C152.822 21.8373 152.902 22.4393 153.06 22.906C153.228 23.3727 153.452 23.7133 153.732 23.928C154.022 24.1427 154.353 24.25 154.726 24.25ZM161.486 26V17.04L162.466 18.02H159.526V16.2H163.754V26H161.486ZM172.176 28.884C171.168 28.884 170.253 28.7207 169.432 28.394C168.611 28.0767 167.901 27.6287 167.304 27.05C166.716 26.4713 166.259 25.79 165.932 25.006C165.615 24.222 165.456 23.368 165.456 22.444C165.456 21.5293 165.615 20.6847 165.932 19.91C166.259 19.1353 166.721 18.4587 167.318 17.88C167.915 17.3013 168.629 16.8533 169.46 16.536C170.291 16.2187 171.215 16.06 172.232 16.06C173.212 16.06 174.108 16.214 174.92 16.522C175.732 16.8207 176.432 17.2453 177.02 17.796C177.608 18.3467 178.061 18.9953 178.378 19.742C178.695 20.4793 178.854 21.2867 178.854 22.164C178.854 22.9947 178.733 23.704 178.49 24.292C178.257 24.88 177.925 25.328 177.496 25.636C177.067 25.944 176.563 26.098 175.984 26.098C175.349 26.098 174.845 25.9113 174.472 25.538C174.099 25.1647 173.912 24.6187 173.912 23.9V23.256L173.954 22.5L173.828 20.47V19.126H175.732V23.662C175.732 23.998 175.797 24.2313 175.928 24.362C176.059 24.4927 176.217 24.558 176.404 24.558C176.619 24.558 176.801 24.474 176.95 24.306C177.109 24.138 177.23 23.8813 177.314 23.536C177.398 23.1813 177.44 22.7333 177.44 22.192C177.44 21.4827 177.314 20.834 177.062 20.246C176.819 19.658 176.465 19.1493 175.998 18.72C175.541 18.2907 174.99 17.964 174.346 17.74C173.711 17.5067 173.007 17.39 172.232 17.39C171.457 17.39 170.748 17.516 170.104 17.768C169.46 18.02 168.909 18.3747 168.452 18.832C167.995 19.28 167.64 19.812 167.388 20.428C167.145 21.044 167.024 21.716 167.024 22.444C167.024 23.1907 167.145 23.8767 167.388 24.502C167.631 25.118 167.976 25.65 168.424 26.098C168.881 26.5553 169.427 26.91 170.062 27.162C170.697 27.414 171.401 27.54 172.176 27.54C172.624 27.54 173.086 27.4887 173.562 27.386C174.038 27.2927 174.495 27.1387 174.934 26.924L175.382 28.212C174.953 28.4267 174.449 28.59 173.87 28.702C173.301 28.8233 172.736 28.884 172.176 28.884ZM171.672 26.098C171.075 26.098 170.529 25.9533 170.034 25.664C169.549 25.3653 169.161 24.95 168.872 24.418C168.583 23.8767 168.438 23.256 168.438 22.556C168.438 21.856 168.578 21.24 168.858 20.708C169.147 20.176 169.535 19.7653 170.02 19.476C170.515 19.1773 171.065 19.028 171.672 19.028C172.288 19.028 172.815 19.168 173.254 19.448C173.693 19.728 174.029 20.1293 174.262 20.652C174.495 21.1747 174.612 21.8093 174.612 22.556C174.612 23.2933 174.5 23.928 174.276 24.46C174.052 24.992 173.721 25.398 173.282 25.678C172.853 25.958 172.316 26.098 171.672 26.098ZM172.106 24.488C172.442 24.488 172.741 24.4133 173.002 24.264C173.273 24.1053 173.483 23.8813 173.632 23.592C173.781 23.3027 173.856 22.9573 173.856 22.556C173.856 22.1453 173.781 21.8 173.632 21.52C173.483 21.24 173.273 21.0253 173.002 20.876C172.741 20.7267 172.442 20.652 172.106 20.652C171.77 20.652 171.471 20.7267 171.21 20.876C170.949 21.0253 170.743 21.2447 170.594 21.534C170.445 21.814 170.37 22.1547 170.37 22.556C170.37 22.9573 170.445 23.3027 170.594 23.592C170.743 23.872 170.949 24.0913 171.21 24.25C171.471 24.4087 171.77 24.488 172.106 24.488ZM183.952 28.828C183.243 28.828 182.557 28.7393 181.894 28.562C181.241 28.394 180.695 28.1373 180.256 27.792L181.124 26.224C181.442 26.4853 181.843 26.6907 182.328 26.84C182.823 26.9987 183.308 27.078 183.784 27.078C184.559 27.078 185.119 26.9053 185.464 26.56C185.819 26.2147 185.996 25.7013 185.996 25.02V23.886L186.136 21.996L186.108 20.092V18.468H188.18V24.74C188.18 26.14 187.816 27.1713 187.088 27.834C186.36 28.4967 185.315 28.828 183.952 28.828ZM183.616 25.636C182.916 25.636 182.282 25.4867 181.712 25.188C181.152 24.88 180.7 24.4553 180.354 23.914C180.018 23.3633 179.85 22.724 179.85 21.996C179.85 21.2587 180.018 20.6193 180.354 20.078C180.7 19.5273 181.152 19.1027 181.712 18.804C182.282 18.5053 182.916 18.356 183.616 18.356C184.251 18.356 184.811 18.4867 185.296 18.748C185.782 19 186.16 19.3967 186.43 19.938C186.701 20.47 186.836 21.156 186.836 21.996C186.836 22.8267 186.701 23.5127 186.43 24.054C186.16 24.586 185.782 24.9827 185.296 25.244C184.811 25.5053 184.251 25.636 183.616 25.636ZM184.05 23.844C184.433 23.844 184.774 23.7693 185.072 23.62C185.371 23.4613 185.604 23.242 185.772 22.962C185.94 22.682 186.024 22.36 186.024 21.996C186.024 21.6227 185.94 21.3007 185.772 21.03C185.604 20.75 185.371 20.5353 185.072 20.386C184.774 20.2273 184.433 20.148 184.05 20.148C183.668 20.148 183.327 20.2273 183.028 20.386C182.73 20.5353 182.492 20.75 182.314 21.03C182.146 21.3007 182.062 21.6227 182.062 21.996C182.062 22.36 182.146 22.682 182.314 22.962C182.492 23.242 182.73 23.4613 183.028 23.62C183.327 23.7693 183.668 23.844 184.05 23.844ZM199.859 18.356C200.456 18.356 200.984 18.4773 201.441 18.72C201.908 18.9533 202.272 19.3173 202.533 19.812C202.804 20.2973 202.939 20.9227 202.939 21.688V26H200.755V22.024C200.755 21.4173 200.629 20.9693 200.377 20.68C200.125 20.3907 199.77 20.246 199.313 20.246C198.996 20.246 198.711 20.3207 198.459 20.47C198.207 20.61 198.011 20.8247 197.871 21.114C197.731 21.4033 197.661 21.772 197.661 22.22V26H195.477V22.024C195.477 21.4173 195.351 20.9693 195.099 20.68C194.856 20.3907 194.506 20.246 194.049 20.246C193.732 20.246 193.447 20.3207 193.195 20.47C192.943 20.61 192.747 20.8247 192.607 21.114C192.467 21.4033 192.397 21.772 192.397 22.22V26H190.213V18.468H192.299V20.526L191.907 19.924C192.168 19.4107 192.537 19.0233 193.013 18.762C193.498 18.4913 194.049 18.356 194.665 18.356C195.356 18.356 195.958 18.5333 196.471 18.888C196.994 19.2333 197.339 19.7653 197.507 20.484L196.737 20.274C196.989 19.686 197.39 19.2193 197.941 18.874C198.501 18.5287 199.14 18.356 199.859 18.356ZM209.517 26V24.53L209.377 24.208V21.576C209.377 21.1093 209.232 20.7453 208.943 20.484C208.663 20.2227 208.229 20.092 207.641 20.092C207.239 20.092 206.843 20.1573 206.451 20.288C206.068 20.4093 205.741 20.5773 205.471 20.792L204.687 19.266C205.097 18.9767 205.592 18.7527 206.171 18.594C206.749 18.4353 207.337 18.356 207.935 18.356C209.083 18.356 209.974 18.6267 210.609 19.168C211.243 19.7093 211.561 20.554 211.561 21.702V26H209.517ZM207.221 26.112C206.633 26.112 206.129 26.014 205.709 25.818C205.289 25.6127 204.967 25.3373 204.743 24.992C204.519 24.6467 204.407 24.2593 204.407 23.83C204.407 23.382 204.514 22.99 204.729 22.654C204.953 22.318 205.303 22.0567 205.779 21.87C206.255 21.674 206.875 21.576 207.641 21.576H209.643V22.85H207.879C207.365 22.85 207.011 22.934 206.815 23.102C206.628 23.27 206.535 23.48 206.535 23.732C206.535 24.012 206.642 24.236 206.857 24.404C207.081 24.5627 207.384 24.642 207.767 24.642C208.131 24.642 208.457 24.558 208.747 24.39C209.036 24.2127 209.246 23.956 209.377 23.62L209.713 24.628C209.554 25.1133 209.265 25.482 208.845 25.734C208.425 25.986 207.883 26.112 207.221 26.112ZM213.537 26V18.468H215.721V26H213.537ZM214.629 17.418C214.228 17.418 213.901 17.3013 213.649 17.068C213.397 16.8347 213.271 16.5453 213.271 16.2C213.271 15.8547 213.397 15.5653 213.649 15.332C213.901 15.0987 214.228 14.982 214.629 14.982C215.031 14.982 215.357 15.094 215.609 15.318C215.861 15.5327 215.987 15.8127 215.987 16.158C215.987 16.522 215.861 16.8253 215.609 17.068C215.367 17.3013 215.04 17.418 214.629 17.418ZM217.748 26V15.612H219.932V26H217.748ZM222.785 26.112C222.412 26.112 222.09 25.986 221.819 25.734C221.558 25.4727 221.427 25.1413 221.427 24.74C221.427 24.3387 221.558 24.0167 221.819 23.774C222.09 23.522 222.412 23.396 222.785 23.396C223.168 23.396 223.49 23.522 223.751 23.774C224.013 24.0167 224.143 24.3387 224.143 24.74C224.143 25.1413 224.013 25.4727 223.751 25.734C223.49 25.986 223.168 26.112 222.785 26.112ZM229.181 26.112C228.369 26.112 227.646 25.9487 227.011 25.622C226.377 25.286 225.877 24.824 225.513 24.236C225.159 23.648 224.981 22.9807 224.981 22.234C224.981 21.478 225.159 20.8107 225.513 20.232C225.877 19.644 226.377 19.1867 227.011 18.86C227.646 18.524 228.369 18.356 229.181 18.356C229.975 18.356 230.665 18.524 231.253 18.86C231.841 19.1867 232.275 19.658 232.555 20.274L230.861 21.184C230.665 20.8293 230.418 20.568 230.119 20.4C229.83 20.232 229.513 20.148 229.167 20.148C228.794 20.148 228.458 20.232 228.159 20.4C227.861 20.568 227.623 20.806 227.445 21.114C227.277 21.422 227.193 21.7953 227.193 22.234C227.193 22.6727 227.277 23.046 227.445 23.354C227.623 23.662 227.861 23.9 228.159 24.068C228.458 24.236 228.794 24.32 229.167 24.32C229.513 24.32 229.83 24.2407 230.119 24.082C230.418 23.914 230.665 23.648 230.861 23.284L232.555 24.208C232.275 24.8147 231.841 25.286 231.253 25.622C230.665 25.9487 229.975 26.112 229.181 26.112ZM237.301 26.112C236.498 26.112 235.784 25.944 235.159 25.608C234.543 25.272 234.053 24.8147 233.689 24.236C233.334 23.648 233.157 22.9807 233.157 22.234C233.157 21.478 233.334 20.8107 233.689 20.232C234.053 19.644 234.543 19.1867 235.159 18.86C235.784 18.524 236.498 18.356 237.301 18.356C238.094 18.356 238.804 18.524 239.429 18.86C240.054 19.1867 240.544 19.6393 240.899 20.218C241.254 20.7967 241.431 21.4687 241.431 22.234C241.431 22.9807 241.254 23.648 240.899 24.236C240.544 24.8147 240.054 25.272 239.429 25.608C238.804 25.944 238.094 26.112 237.301 26.112ZM237.301 24.32C237.665 24.32 237.992 24.236 238.281 24.068C238.57 23.9 238.799 23.662 238.967 23.354C239.135 23.0367 239.219 22.6633 239.219 22.234C239.219 21.7953 239.135 21.422 238.967 21.114C238.799 20.806 238.57 20.568 238.281 20.4C237.992 20.232 237.665 20.148 237.301 20.148C236.937 20.148 236.61 20.232 236.321 20.4C236.032 20.568 235.798 20.806 235.621 21.114C235.453 21.422 235.369 21.7953 235.369 22.234C235.369 22.6633 235.453 23.0367 235.621 23.354C235.798 23.662 236.032 23.9 236.321 24.068C236.61 24.236 236.937 24.32 237.301 24.32ZM252.537 18.356C253.134 18.356 253.661 18.4773 254.119 18.72C254.585 18.9533 254.949 19.3173 255.211 19.812C255.481 20.2973 255.617 20.9227 255.617 21.688V26H253.433V22.024C253.433 21.4173 253.307 20.9693 253.055 20.68C252.803 20.3907 252.448 20.246 251.991 20.246C251.673 20.246 251.389 20.3207 251.137 20.47C250.885 20.61 250.689 20.8247 250.549 21.114C250.409 21.4033 250.339 21.772 250.339 22.22V26H248.155V22.024C248.155 21.4173 248.029 20.9693 247.777 20.68C247.534 20.3907 247.184 20.246 246.727 20.246C246.409 20.246 246.125 20.3207 245.873 20.47C245.621 20.61 245.425 20.8247 245.285 21.114C245.145 21.4033 245.075 21.772 245.075 22.22V26H242.891V18.468H244.977V20.526L244.585 19.924C244.846 19.4107 245.215 19.0233 245.691 18.762C246.176 18.4913 246.727 18.356 247.343 18.356C248.033 18.356 248.635 18.5333 249.149 18.888C249.671 19.2333 250.017 19.7653 250.185 20.484L249.415 20.274C249.667 19.686 250.068 19.2193 250.619 18.874C251.179 18.5287 251.818 18.356 252.537 18.356Z" fill="#04114E"/>
<path d="M19.7631 12H39.2369C41.0741 12 42 12.885 42 14.685V27.315C42 29.1 41.0741 30 39.2369 30H19.7631C17.9259 30 17 29.1 17 27.315V14.685C17 12.885 17.9259 12 19.7631 12ZM29.4927 24.9L39.3986 16.605C39.7513 16.305 40.0306 15.615 39.5897 15C39.1634 14.385 38.3845 14.37 37.8701 14.745L29.4927 20.535L21.1299 14.745C20.6155 14.37 19.8366 14.385 19.4103 15C18.9694 15.615 19.2487 16.305 19.6014 16.605L29.4927 24.9Z" fill="#04114E"/>
</svg>
