<svg width="51" height="48" viewBox="0 0 51 48" fill="none" xmlns="http://www.w3.org/2000/svg">
<path fill-rule="evenodd" clip-rule="evenodd" d="M1.33943 10.3444C-1.19209e-07 11.6887 0 13.8498 0 18.1765V38.8235C0 43.1502 -1.19209e-07 45.3113 1.33943 46.6556C2.67886 48 4.832 48 9.14286 48H22.8571C27.168 48 29.3211 48 30.6606 46.6556C32 45.3113 32 43.1502 32 38.8235V18.1765C32 13.8498 32 11.6887 30.6606 10.3444C29.3211 9 27.168 9 22.8571 9H9.14286C4.832 9 2.67886 9 1.33943 10.3444ZM9.14286 18.1765C8.53665 18.1765 7.95527 18.4182 7.52661 18.8484C7.09796 19.2786 6.85714 19.8622 6.85714 20.4706C6.85714 21.079 7.09796 21.6625 7.52661 22.0928C7.95527 22.523 8.53665 22.7647 9.14286 22.7647H22.8571C23.4634 22.7647 24.0447 22.523 24.4734 22.0928C24.902 21.6625 25.1429 21.079 25.1429 20.4706C25.1429 19.8622 24.902 19.2786 24.4734 18.8484C24.0447 18.4182 23.4634 18.1765 22.8571 18.1765H9.14286ZM9.14286 27.3529C8.53665 27.3529 7.95527 27.5946 7.52661 28.0249C7.09796 28.4551 6.85714 29.0386 6.85714 29.6471C6.85714 30.2555 7.09796 30.839 7.52661 31.2692C7.95527 31.6995 8.53665 31.9412 9.14286 31.9412H22.8571C23.4634 31.9412 24.0447 31.6995 24.4734 31.2692C24.902 30.839 25.1429 30.2555 25.1429 29.6471C25.1429 29.0386 24.902 28.4551 24.4734 28.0249C24.0447 27.5946 23.4634 27.3529 22.8571 27.3529H9.14286ZM9.14286 36.5294C8.53665 36.5294 7.95527 36.7711 7.52661 37.2013C7.09796 37.6316 6.85714 38.2151 6.85714 38.8235C6.85714 39.432 7.09796 40.0155 7.52661 40.4457C7.95527 40.8759 8.53665 41.1176 9.14286 41.1176H18.2857C18.8919 41.1176 19.4733 40.8759 19.902 40.4457C20.3306 40.0155 20.5714 39.432 20.5714 38.8235C20.5714 38.2151 20.3306 37.6316 19.902 37.2013C19.4733 36.7711 18.8919 36.5294 18.2857 36.5294H9.14286Z" fill="#0AB307"/>
<g filter="url(#filter0_d_0_1)">
<circle cx="33.5" cy="13.5" r="13.5" fill="#0AB307"/>
</g>
<path d="M33.55 18.14C32.738 18.14 32.0333 18.0187 31.436 17.776C30.8387 17.5333 30.3767 17.1927 30.05 16.754C29.7233 16.306 29.56 15.7833 29.56 15.186C29.56 14.5887 29.7187 14.0847 30.036 13.674C30.3533 13.2633 30.8107 12.9507 31.408 12.736C32.0053 12.5213 32.7193 12.414 33.55 12.414C34.3807 12.414 35.0947 12.5213 35.692 12.736C36.2987 12.9507 36.7607 13.268 37.078 13.688C37.4047 14.0987 37.568 14.598 37.568 15.186C37.568 15.7833 37.4 16.306 37.064 16.754C36.7373 17.1927 36.2707 17.5333 35.664 17.776C35.0667 18.0187 34.362 18.14 33.55 18.14ZM33.55 16.712C34.222 16.712 34.754 16.572 35.146 16.292C35.538 16.012 35.734 15.6247 35.734 15.13C35.734 14.6447 35.538 14.262 35.146 13.982C34.754 13.702 34.222 13.562 33.55 13.562C32.878 13.562 32.3507 13.702 31.968 13.982C31.5853 14.262 31.394 14.6447 31.394 15.13C31.394 15.6247 31.5853 16.012 31.968 16.292C32.3507 16.572 32.878 16.712 33.55 16.712ZM33.55 13.366C32.794 13.366 32.1453 13.268 31.604 13.072C31.0627 12.8667 30.6427 12.5727 30.344 12.19C30.0547 11.798 29.91 11.3313 29.91 10.79C29.91 10.23 30.0593 9.74933 30.358 9.348C30.666 8.93733 31.0953 8.62 31.646 8.396C32.1967 8.172 32.8313 8.06 33.55 8.06C34.278 8.06 34.9173 8.172 35.468 8.396C36.0187 8.62 36.448 8.93733 36.756 9.348C37.064 9.74933 37.218 10.23 37.218 10.79C37.218 11.3313 37.0687 11.798 36.77 12.19C36.4807 12.5727 36.0607 12.8667 35.51 13.072C34.9593 13.268 34.306 13.366 33.55 13.366ZM33.55 12.246C34.1287 12.246 34.586 12.1247 34.922 11.882C35.258 11.63 35.426 11.294 35.426 10.874C35.426 10.4353 35.2533 10.0947 34.908 9.852C34.5627 9.60933 34.11 9.488 33.55 9.488C32.99 9.488 32.542 9.60933 32.206 9.852C31.87 10.0947 31.702 10.4353 31.702 10.874C31.702 11.294 31.8653 11.63 32.192 11.882C32.528 12.1247 32.9807 12.246 33.55 12.246Z" fill="white"/>
<defs>
<filter id="filter0_d_0_1" x="16" y="0" width="35" height="35" filterUnits="userSpaceOnUse" color-interpolation-filters="sRGB">
<feFlood flood-opacity="0" result="BackgroundImageFix"/>
<feColorMatrix in="SourceAlpha" type="matrix" values="0 0 0 0 0 0 0 0 0 0 0 0 0 0 0 0 0 0 127 0" result="hardAlpha"/>
<feOffset dy="4"/>
<feGaussianBlur stdDeviation="2"/>
<feComposite in2="hardAlpha" operator="out"/>
<feColorMatrix type="matrix" values="0 0 0 0 0 0 0 0 0 0 0 0 0 0 0 0 0 0 0.25 0"/>
<feBlend mode="normal" in2="BackgroundImageFix" result="effect1_dropShadow_0_1"/>
<feBlend mode="normal" in="SourceGraphic" in2="effect1_dropShadow_0_1" result="shape"/>
</filter>
</defs>
</svg>
