<svg width="33" height="33" viewBox="0 0 33 33" fill="none" xmlns="http://www.w3.org/2000/svg">
<path d="M16.25 0C25.2249 0 32.5 7.27513 32.5 16.25C32.5 25.2249 25.2249 32.5 16.25 32.5C7.27513 32.5 0 25.2249 0 16.25C0 7.27513 7.27513 0 16.25 0ZM16.25 22.75C15.819 22.75 15.4057 22.9212 15.101 23.226C14.7962 23.5307 14.625 23.944 14.625 24.375C14.625 24.806 14.7962 25.2193 15.101 25.524C15.4057 25.8288 15.819 26 16.25 26C16.681 26 17.0943 25.8288 17.399 25.524C17.7038 25.2193 17.875 24.806 17.875 24.375C17.875 23.944 17.7038 23.5307 17.399 23.226C17.0943 22.9212 16.681 22.75 16.25 22.75ZM16.25 7.3125C14.6877 7.3125 13.1894 7.93312 12.0847 9.03782C10.98 10.1425 10.3594 11.6408 10.3594 13.2031C10.3594 13.6341 10.5306 14.0474 10.8353 14.3522C11.1401 14.6569 11.5534 14.8281 11.9844 14.8281C12.4154 14.8281 12.8287 14.6569 13.1334 14.3522C13.4382 14.0474 13.6094 13.6341 13.6094 13.2031C13.6099 12.7238 13.7409 12.2537 13.9883 11.8431C14.2357 11.4326 14.5902 11.0972 15.0137 10.8727C15.4372 10.6483 15.9139 10.5434 16.3925 10.5693C16.8711 10.5952 17.3337 10.7508 17.7306 11.0196C18.1274 11.2883 18.4437 11.66 18.6454 12.0948C18.8471 12.5296 18.9267 13.0111 18.8756 13.4877C18.8244 13.9643 18.6446 14.418 18.3552 14.8001C18.0659 15.1823 17.678 15.4784 17.2331 15.6569C16.1346 16.0956 14.625 17.2201 14.625 19.0938V19.5C14.625 19.931 14.7962 20.3443 15.101 20.649C15.4057 20.9538 15.819 21.125 16.25 21.125C16.681 21.125 17.0943 20.9538 17.399 20.649C17.7038 20.3443 17.875 19.931 17.875 19.5C17.875 19.1035 17.9562 18.9052 18.2991 18.7362L18.4405 18.6712C19.7093 18.1608 20.7611 17.2249 21.4154 16.024C22.0698 14.8231 22.286 13.4319 22.0271 12.089C21.7681 10.7461 21.0501 9.53511 19.996 8.66364C18.942 7.79217 17.6176 7.31449 16.25 7.3125Z" fill="white"/>
</svg>
