<svg width="28" height="29" viewBox="0 0 28 29" fill="none" xmlns="http://www.w3.org/2000/svg">
<g clip-path="url(#clip0_1179_7755)">
<path fill-rule="evenodd" clip-rule="evenodd" d="M26.9223 20.0765C26.9223 26.2328 21.5363 29.0003 13.9963 29.0003C6.45631 29.0003 1.07031 26.2328 1.07031 20.12C1.07031 13.4273 4.30231 10.0363 10.7643 6.6454L8.47631 2.23119C8.3398 2.01009 8.26378 1.75477 8.25636 1.49244C8.24895 1.23012 8.31041 0.970623 8.4342 0.741633C8.55799 0.512642 8.73946 0.32274 8.95926 0.192177C9.17907 0.0616136 9.42897 -0.004716 9.68231 0.000260818H18.8163C19.0538 0.00655379 19.2858 0.0753227 19.4905 0.200095C19.6952 0.324868 19.866 0.501541 19.9866 0.713487C20.1072 0.925433 20.1738 1.16568 20.18 1.41162C20.1863 1.65756 20.132 1.90111 20.0223 2.11933L17.2283 6.6454C23.6883 9.99076 26.9223 13.3817 26.9223 20.0765ZM15.2463 10.1233C15.2463 9.77997 15.1146 9.45067 14.8802 9.20788C14.6458 8.96509 14.3278 8.82869 13.9963 8.82869C13.6648 8.82869 13.3468 8.96509 13.1124 9.20788C12.878 9.45067 12.7463 9.77997 12.7463 10.1233V11.4221C11.8991 11.4559 11.0929 11.8089 10.4792 12.4148C9.86547 13.0207 9.48644 13.8378 9.41326 14.7127C9.34009 15.5875 9.57781 16.46 10.0818 17.1661C10.5858 17.8723 11.3213 18.3636 12.1503 18.5478L15.0963 19.2148C15.3983 19.2822 15.6655 19.4629 15.8464 19.7222C16.0273 19.9814 16.1091 20.3009 16.0761 20.619C16.043 20.9371 15.8974 21.2312 15.6674 21.4447C15.4374 21.6581 15.1392 21.7759 14.8303 21.7751H13.1623C12.9037 21.7755 12.6514 21.6929 12.44 21.5386C12.2287 21.3842 12.0688 21.1658 11.9823 20.9134C11.9318 20.7478 11.8497 20.5944 11.7407 20.4624C11.6318 20.3303 11.4984 20.2223 11.3483 20.1448C11.1983 20.0673 11.0347 20.0218 10.8673 20.0111C10.7 20.0004 10.5322 20.0247 10.3741 20.0825C10.216 20.1404 10.0707 20.2306 9.94696 20.3477C9.8232 20.4649 9.72346 20.6067 9.65369 20.7646C9.58392 20.9225 9.54554 21.0934 9.54083 21.267C9.53613 21.4406 9.5652 21.6134 9.62631 21.7751C9.86141 22.4631 10.2787 23.0686 10.8304 23.5224C11.3822 23.9763 12.0461 24.2602 12.7463 24.3416V25.659C12.7463 26.0024 12.878 26.3317 13.1124 26.5745C13.3468 26.8173 13.6648 26.9537 13.9963 26.9537C14.3278 26.9537 14.6458 26.8173 14.8802 26.5745C15.1146 26.3317 15.2463 26.0024 15.2463 25.659V24.3416C16.1288 24.2377 16.9471 23.8129 17.5556 23.1428C18.1641 22.4727 18.5234 21.6008 18.5695 20.6821C18.6155 19.7634 18.3455 18.8576 17.8073 18.1258C17.2691 17.394 16.4977 16.8837 15.6303 16.6856L12.6843 16.0186C12.4453 15.9679 12.2331 15.8268 12.0893 15.6227C11.9454 15.4186 11.8803 15.1662 11.9065 14.915C11.9328 14.6638 12.0486 14.4317 12.2313 14.2642C12.4139 14.0968 12.6504 14.0059 12.8943 14.0093H14.8303C15.0891 14.008 15.3419 14.0903 15.5534 14.2447C15.7649 14.3992 15.9246 14.6181 16.0103 14.871C16.1266 15.1867 16.3575 15.4428 16.6537 15.5846C16.9498 15.7264 17.2877 15.7426 17.5953 15.6299C17.9028 15.5171 18.1556 15.2843 18.2997 14.9811C18.4437 14.6779 18.4677 14.3284 18.3663 14.0073C18.1315 13.3193 17.7143 12.7138 17.1624 12.2603C16.6106 11.8067 15.9465 11.5234 15.2463 11.4428V10.1233Z" fill="white"/>
</g>
<defs>
<clipPath id="clip0_1179_7755">
<rect width="28" height="29" fill="white"/>
</clipPath>
</defs>
</svg>
