<svg width="129" height="129" viewBox="0 0 129 129" fill="none" xmlns="http://www.w3.org/2000/svg">
<path d="M111.204 19.8872C110.545 18.2747 108.578 17.7371 104.666 17.7371C97.8386 18.2746 85.7327 42.4624 86.3382 27.4124C76.0061 21.4999 85.4111 44.6122 74.3449 46.7622C67.3675 54.2872 70.5882 41.9249 69.8648 38.1624C68.7394 32.7874 71.2688 29.0251 75.2398 26.3376L86.2846 15.0496C80.7488 0.537106 67.0674 31.175 70.3632 13.4375C72.9891 8.0625 68.6429 0.5375 64.538 0H64.6023C63.5198 0 62.4909 0.537106 61.5155 1.61211C60.6313 2.14961 59.7899 3.22513 59.1951 4.83763H59.1308C58.8307 5.37513 58.5199 6.44961 58.3377 6.98711H58.2787C58.1447 7.52461 57.9679 8.06224 57.925 9.13724H58.0108C57.9786 9.67474 57.9465 10.2124 58.0644 11.2874H58.1501C58.2787 11.8249 58.4234 12.9 58.7235 13.4375H58.8092C59.1897 15.5875 59.2969 17.1996 59.2326 17.7371C59.2272 17.7371 59.3183 18.2751 59.313 18.2751C59.2755 18.2751 59.104 18.8125 58.9807 18.8125C58.8468 18.8125 58.6217 19.3499 58.3966 19.3499C58.1662 19.3499 57.9197 18.8125 57.6142 18.8125C56.6978 18.275 55.5403 16.6626 54.1469 15.5876C52.3313 13.9751 50.1711 11.8249 48.1948 11.2874C47.146 11.2874 46.1835 11.2872 45.2495 11.8247C44.8004 11.8247 44.4381 12.3626 44.0346 12.9001C43.5919 13.4376 43.1782 14.5121 42.8031 15.0496L53.7933 26.3376C55.7814 27.4126 57.4052 29.5621 58.3644 31.1746C58.6002 31.7121 58.8307 32.2499 58.9807 32.7874C59.1361 33.3249 59.238 33.8626 59.3023 34.4001C59.4523 35.4751 59.3612 36.5499 59.0665 38.1624C58.8843 38.6999 58.9861 40.3121 59.0879 41.9246C59.1361 42.9996 59.0343 43.5372 59.0772 44.0747C59.1093 45.1497 59.2487 46.2247 59.2112 46.7622C59.1844 47.2997 59.1737 47.8375 59.0075 48.375C58.7664 48.9125 58.2841 48.9124 57.6035 48.9124C56.9443 48.9124 55.969 47.8372 54.7311 46.7622H54.6453C53.3163 46.2247 52.2434 45.6876 51.4385 45.1501C51.0275 44.6126 50.7456 44.0749 50.4434 43.5374C50.1208 42.9999 49.788 42.4621 49.5725 41.9246C49.177 40.8496 48.9836 39.2374 48.8191 38.1624H48.7344C48.6572 37.0874 48.669 36.5497 48.6208 36.0122C48.5683 35.4747 48.6085 34.9371 48.5693 33.8621C48.5318 33.3246 48.5007 32.7875 48.4557 32.25C48.4102 31.7125 48.2698 30.6374 48.1953 30.0999C48.1604 30.0999 48.0474 30.1 48.0024 29.5625C47.5018 26.875 46.3314 25.2624 42.7731 27.4124H42.8583C42.8878 28.4874 42.816 29.025 42.7629 29.5625C42.7597 29.5625 42.8508 29.5624 42.8476 30.0999C42.7881 30.6374 42.6064 30.6371 42.4751 31.1746C42.3315 31.7121 42.2152 31.7125 41.9944 32.25H41.175C40.5968 32.25 39.8433 31.7121 39.0438 31.1746C36.6735 29.0246 33.508 24.725 30.4148 21.5C28.3339 19.35 26.2611 17.7371 24.5462 17.7371C24.5103 17.7371 24.4969 17.1997 24.461 17.1997C20.4514 17.1997 18.6197 18.2747 18.0125 19.8872C17.847 20.4247 17.7124 20.9625 17.7017 21.5C17.6926 21.5 17.8137 22.0372 17.9397 22.5747C18.1755 23.6497 18.6572 24.7251 19.3651 26.3376C20.6893 28.4876 22.7097 30.6374 24.7825 32.7874C26.9015 34.9374 29.059 36.55 30.6967 37.625C32.9887 39.2375 34.0482 40.3124 34.1628 40.8499C34.1929 40.8499 34.1055 41.3872 34.0385 41.3872C33.4276 42.4622 29.291 41.925 27.2278 43C26.7707 43.5375 26.4283 44.0746 26.245 44.6121C26.4186 45.1496 26.6576 45.15 26.9234 45.6875C27.7224 46.7625 28.8237 47.3001 30.2363 47.8376C33.0675 48.3751 36.8118 47.8375 40.174 48.375C41.2769 48.9125 42.3069 48.9122 43.272 49.4497C44.72 49.9872 45.9552 51.0621 46.8229 52.6746C47.1122 53.7496 47.3464 54.2872 47.5474 54.8247C48.6395 55.3622 49.4209 55.9 49.9332 56.4375C50.4455 56.975 50.6556 57.5121 50.6968 58.0496H50.6347C50.5548 58.0496 50.505 58.0501 50.3405 58.5876C48.7001 59.1251 43.1289 58.0501 40.6183 58.5876C38.5883 59.1251 36.7126 59.1251 34.9994 58.5876C33.2867 58.0501 31.7084 57.5125 30.2337 56.4375C29.5386 55.9 28.82 55.3622 28.1646 54.8247C27.4722 54.2872 26.73 53.7501 26.0724 53.2126C24.7943 51.6001 23.5269 49.9874 22.3292 48.9124C22.1598 48.3749 22.0285 47.8371 21.7745 47.2996C21.5061 46.7621 21.1272 46.225 20.7794 45.6875C20.4862 45.6875 20.1384 45.1496 19.8067 44.6121C19.4375 44.6121 19.0254 44.6122 18.6251 44.0747H17.3191C16.0946 43.5372 14.8036 44.0747 13.764 44.0747C12.9885 44.6122 12.4783 45.15 12.0234 45.6875C11.7961 45.6875 11.5941 46.2249 11.458 46.2249C11.3251 46.7624 11.2345 46.7621 11.2099 47.2996H11.2945C11.2887 47.8371 11.339 47.8375 11.4248 48.375C11.6552 49.45 12.3776 51.0622 14.2409 52.1372C17.3775 53.7497 18.8582 55.3625 19.2054 56.4375C19.2923 56.4375 19.2129 56.9749 19.1663 56.9749C19.1074 56.9749 19.169 57.5122 19.042 57.5122H18.8952C18.1846 58.0497 16.7987 58.5876 15.0062 58.5876H14.8593H11.9767H11.8294H5.87182C4.21215 58.5876 3.00129 59.1247 2.09048 60.1997H1.79659C1.05266 60.7372 0.557923 61.275 0.310553 61.8125C0.283175 61.8125 0.271674 62.3499 0.248454 62.3499C0.16009 62.3499 0.00194157 62.8872 3.37758e-05 62.8872C-0.00195938 62.8872 0.0849251 63.4246 0.0848715 63.4246C0.0975187 63.4246 0.196124 63.9625 0.300007 64.5C0.714405 66.1125 2.10962 67.1871 3.98124 68.7996C4.90791 69.3371 5.85843 69.875 6.95487 69.875C9.19224 70.95 11.6311 70.95 13.8567 69.875C18.0785 68.8 19.572 69.3375 19.6449 69.875C19.5859 70.4125 19.2017 70.9496 18.5377 71.4871C17.8373 72.5621 16.9145 73.6371 15.9611 74.1746C15.1069 75.2496 14.1986 76.3251 13.4692 77.4001H13.4071C12.6659 78.4751 11.9977 79.5501 11.7576 80.0876C11.6466 80.6251 11.5657 81.1622 11.6166 81.6997H11.7013C11.7115 82.2372 11.7726 82.2371 11.786 82.2371C12.0175 83.3121 13.0298 84.9251 15.6535 85.4626L26.6957 74.7126C26.7402 74.7126 26.7128 74.7121 26.7573 74.1746C27.4995 73.6371 28.2005 72.5626 29.0402 72.0251C31.5579 69.8751 34.5851 68.8001 38.3948 69.3376C41.2699 69.8751 47.7023 68.2625 49.2762 69.875H49.5308C49.5522 70.4125 49.6047 70.4124 49.6154 70.4124C49.6197 70.4124 49.5511 70.4122 49.4911 70.9497C49.2569 71.4872 48.527 72.5622 47.0844 73.6372H47.1691C47.0522 74.7122 46.8405 75.25 46.5871 75.25C43.2833 82.2375 29.2846 77.9372 27.2744 81.6997C27.1458 81.6997 26.9652 82.2376 26.9411 82.7751H27.0258C27.0178 82.7751 26.9518 83.3124 27.0939 83.8499C27.2353 84.3874 27.5102 84.9251 27.8805 85.4626H27.9652C29.8618 85.4626 31.0713 85.4625 31.8601 86C32.5348 86 32.9876 86.5372 32.9174 87.0747C32.5 90.2997 20.7183 97.2874 18.3384 102.662C18.1417 102.662 17.937 103.2 17.8813 103.737H17.9659C17.959 104.812 17.9359 105.887 18.0404 106.425H18.1251C18.235 106.962 18.3303 107.5 18.5324 108.037C18.5506 108.037 18.5988 108.575 18.6176 108.575C19.0565 109.112 19.7247 110.188 20.4777 110.188C25.1898 112.338 35.33 102.662 38.2684 97.8247C40.1515 95.1372 41.1986 94.0625 41.7887 94.0625C42.0143 94.6 42.1788 94.5997 42.2978 95.1372H42.3824C42.5035 95.6747 42.5571 96.2124 42.6429 97.2874C42.8712 98.8999 43.2099 101.05 44.3063 102.125H45.0866C45.7259 102.662 46.4702 102.662 47.5678 102.125C47.5688 101.588 47.6294 101.588 47.6299 101.588C47.6396 100.513 47.5849 99.4371 47.6573 98.3621C47.6626 98.3621 47.7135 98.3622 47.7194 97.8247C47.7971 96.7497 47.9665 95.6749 48.1251 94.5999H48.1873C48.3571 93.5249 48.5501 92.45 48.825 91.375C49.1138 90.3 49.4182 88.6876 49.8416 88.1501C50.5661 86.0001 51.6052 84.3876 52.8078 82.7751C53.0414 82.7751 53.1802 82.2372 53.4347 81.6997C54.1898 81.1622 54.9079 80.0871 55.8618 79.5496C56.8157 78.4746 57.9036 77.9371 59.0718 76.8621L59.0504 95.6746C56.7621 99.4371 52.2858 102.662 49.124 106.425C47.8454 106.962 46.9408 107.5 46.2077 108.575C45.9183 108.575 45.5614 109.112 45.3492 109.112C45.309 109.112 45.3245 109.113 45.287 109.65C45.0523 109.65 44.8776 110.187 44.7447 110.725H44.6825C44.5073 111.262 44.2913 111.8 44.3326 112.338C44.3679 113.413 44.6273 113.95 44.9944 114.487C45.5142 115.562 46.3422 116.1 47.2955 116.1C47.6664 116.637 47.9488 116.637 48.3695 116.637C49.1197 116.637 49.9675 116.1 50.8282 115.562C51.6893 115.025 52.5784 114.488 53.49 112.875C54.2113 112.338 54.849 111.262 55.3956 110.725C56.4835 109.65 57.3302 109.112 57.8714 108.575C58.0644 108.575 58.2841 109.112 58.418 109.112C58.7503 109.65 58.8789 110.187 58.9325 111.262C58.9861 112.337 59.045 113.95 59.0129 115.025C58.9754 116.638 58.8468 118.25 58.9057 119.862H58.9915C59.0558 121.475 59.1469 122.55 59.4738 124.162C59.8007 125.237 60.4169 126.312 61.194 127.387C61.5959 127.925 61.9871 127.925 62.5445 128.463C63.1339 128.463 63.7449 129 64.5433 129C76.2366 129 64.1039 97.825 75.6096 112.875C82.8978 122.012 89.5107 110.187 79.9986 106.425C76.8368 102.662 72.2227 99.9746 69.9345 95.6746L69.8702 77.4001C79.2483 82.7751 81.3919 91.9125 81.4723 102.125C89.6072 105.887 83.2622 87.0747 90.7969 97.8247C94.6821 104.275 111.477 119.325 111.241 103.737C110.261 97.2871 86.0756 84.9251 101.247 85.4626C107.324 75.2501 83.8892 84.9247 82.0618 73.6372C74.3663 66.6497 86.4186 70.4126 90.6951 69.3376C95.77 68.2626 99.3659 70.9501 102.335 74.7126L113.412 85.4626C127.977 80.0876 97.3241 66.65 115.336 69.875C124.055 73.6375 136.455 61.2751 123.181 58.5876C116.145 59.1251 102.19 59.1247 114.735 52.1372C124.055 45.1497 109.494 39.2374 106.783 48.9124C101.852 54.2874 96.6382 60.7376 88.5193 58.5876C84.5001 58.0501 72.7158 60.7372 81.4509 54.8247C84.6662 43.5372 100.089 52.1371 102.871 44.6121C101.402 40.3121 89.1892 44.6125 98.3584 37.625C103.273 34.9375 113.171 24.7247 111.204 19.8872Z" fill="#EEF5FF"/>
</svg>
