<svg width="91" height="89" viewBox="0 0 91 89" fill="none" xmlns="http://www.w3.org/2000/svg">
<path fill-rule="evenodd" clip-rule="evenodd" d="M45.5 89C51.4751 89 57.3918 87.849 62.9121 85.6126C68.4324 83.3763 73.4483 80.0985 77.6734 75.9662C81.8984 71.834 85.2499 66.9284 87.5365 61.5294C89.8231 56.1304 91 50.3438 91 44.5C91 38.6562 89.8231 32.8696 87.5365 27.4706C85.2499 22.0716 81.8984 17.166 77.6734 13.0337C73.4483 8.90154 68.4324 5.62369 62.9121 3.38736C57.3918 1.15103 51.4751 -8.70797e-08 45.5 0C33.4326 1.75866e-07 21.8595 4.68838 13.3266 13.0337C4.79374 21.3791 0 32.6979 0 44.5C0 56.3021 4.79374 67.6209 13.3266 75.9662C21.8595 84.3116 33.4326 89 45.5 89ZM44.3271 62.4978L69.6049 32.8311L61.8396 26.5022L40.1007 52.0106L28.8521 41.0043L21.7035 47.9957L36.8702 62.8291L40.7832 66.6561L44.3271 62.4978Z" fill="#86B6F6"/>
</svg>
