<svg width="29" height="35" viewBox="0 0 29 35" fill="none" xmlns="http://www.w3.org/2000/svg">
<path d="M14.5 0L0 6.36364V15.9091C0 24.7386 6.18667 32.9955 14.5 35C22.8133 32.9955 29 24.7386 29 15.9091V6.36364L14.5 0ZM14.5 9.54545C16.7556 9.54545 19.0111 11.2955 19.0111 13.5227V15.9091C19.9778 15.9091 20.9444 16.8636 20.9444 17.9773V23.5455C20.9444 24.5 19.9778 25.4545 18.85 25.4545H9.98889C9.02222 25.4545 8.05556 24.5 8.05556 23.3864V17.8182C8.05556 16.8636 9.02222 15.9091 9.98889 15.9091V13.5227C9.98889 11.2955 12.2444 9.54545 14.5 9.54545ZM14.5 11.4545C13.2111 11.4545 12.0833 12.25 12.0833 13.5227V15.9091H16.9167V13.5227C16.9167 12.25 15.7889 11.4545 14.5 11.4545Z" fill="white"/>
</svg>
