<svg width="42" height="42" viewBox="0 0 42 42" fill="none" xmlns="http://www.w3.org/2000/svg">
<path d="M31.5 2.81375C34.6924 4.65689 37.3434 7.30788 39.1866 10.5003C41.0297 13.6927 42 17.314 42 21.0003C42 24.6866 41.0296 28.3079 39.1864 31.5002C37.3433 34.6926 34.6922 37.3436 31.4998 39.1867C28.3073 41.0298 24.686 42.0001 20.9997 42C17.3134 41.9999 13.692 41.0296 10.4997 39.1864C7.30727 37.3432 4.65631 34.6921 2.81323 31.4997C0.970158 28.3072 -9.36383e-05 24.6859 6.77807e-09 20.9996L0.0105002 20.3192C0.128107 16.6925 1.18345 13.1582 3.07364 10.0608C4.96384 6.96338 7.62437 4.40859 10.7959 2.64551C13.9674 0.882425 17.5416 -0.0287924 21.1701 0.000693511C24.7986 0.0301795 28.3576 0.999362 31.5 2.81375ZM21 8.39971C20.443 8.39971 19.9089 8.62096 19.5151 9.01478C19.1212 9.40861 18.9 9.94275 18.9 10.4997C17.2291 10.4997 15.6267 11.1634 14.4452 12.3449C13.2637 13.5264 12.6 15.1288 12.6 16.7997C12.6 18.4705 13.2637 20.0729 14.4452 21.2544C15.6267 22.4359 17.2291 23.0996 18.9 23.0996V27.2996C18.5517 27.3189 18.204 27.2528 17.8871 27.1071C17.5701 26.9615 17.2936 26.7406 17.0814 26.4638L16.9386 26.2517C16.6513 25.7883 16.195 25.4549 15.6663 25.3218C15.1376 25.1888 14.5778 25.2666 14.1054 25.5388C13.633 25.811 13.285 26.2563 13.135 26.7804C12.9849 27.3046 13.0446 27.8665 13.3014 28.3475C13.8374 29.2771 14.602 30.0543 15.5226 30.6056C16.4432 31.1569 17.4894 31.4639 18.5619 31.4974H18.9C18.8996 32.0122 19.0882 32.5091 19.43 32.8939C19.7718 33.2787 20.2431 33.5246 20.7543 33.5848L21 33.5995C21.557 33.5995 22.0911 33.3783 22.4849 32.9845C22.8787 32.5906 23.1 32.0565 23.1 31.4995L23.4696 31.489C25.1068 31.3944 26.6425 30.6651 27.7505 29.4562C28.8585 28.2472 29.4515 26.6539 29.4034 25.0147C29.3552 23.3755 28.6698 21.8197 27.4928 20.6778C26.3158 19.536 24.7399 18.8981 23.1 18.8996V14.6997C23.8518 14.6745 24.5091 14.9937 24.9186 15.5355L25.0614 15.7476C25.3487 16.2109 25.805 16.5444 26.3337 16.6774C26.8624 16.8104 27.4222 16.7326 27.8946 16.4604C28.367 16.1882 28.715 15.743 28.865 15.2188C29.0151 14.6947 28.9554 14.1327 28.6986 13.6518C28.1629 12.7218 27.3984 11.9441 26.4778 11.3925C25.5571 10.8408 24.5108 10.5335 23.4381 10.4997H23.1C23.1 9.94275 22.8787 9.40861 22.4849 9.01478C22.0911 8.62096 21.557 8.39971 21 8.39971ZM23.1 23.0996C23.657 23.0996 24.1911 23.3209 24.5849 23.7147C24.9787 24.1085 25.2 24.6426 25.2 25.1996C25.2 25.7565 24.9787 26.2907 24.5849 26.6845C24.1911 27.0783 23.657 27.2996 23.1 27.2996V23.0996ZM18.9 14.6997V18.8996C18.343 18.8996 17.8089 18.6784 17.4151 18.2846C17.0212 17.8907 16.8 17.3566 16.8 16.7997C16.8 16.2427 17.0212 15.7086 17.4151 15.3147C17.8089 14.9209 18.343 14.6997 18.9 14.6997Z" fill="#86B6F6"/>
</svg>
