<svg width="164" height="109" viewBox="0 0 164 109" fill="none" xmlns="http://www.w3.org/2000/svg">
<path d="M19.8525 34.0523C29.1599 34.0523 36.705 27.101 36.705 18.5261C36.705 9.95129 29.1599 3 19.8525 3C10.5451 3 3 9.95129 3 18.5261C3 27.101 10.5451 34.0523 19.8525 34.0523Z" stroke="#86B6F6" stroke-width="6" stroke-linecap="round" stroke-linejoin="round"/>
<path d="M114.437 105.676C139.875 105.676 160.503 86.6756 160.503 63.2351C160.503 39.7945 139.88 20.79 114.437 20.79C93.7501 20.79 76.2496 33.3519 70.4266 50.6483C64.555 46.3889 57.2989 44.073 49.8256 44.073C40.9581 44.073 32.4538 47.3184 26.1835 53.0952C19.9132 58.872 16.3906 66.707 16.3906 74.8766C16.3906 83.0462 19.9132 90.8812 26.1835 96.658C32.4538 102.435 40.9581 105.68 49.8256 105.68L114.437 105.676Z" fill="#86B6F6" stroke="#86B6F6" stroke-width="6" stroke-linecap="round" stroke-linejoin="round"/>
</svg>
