<svg width="143" height="123" viewBox="0 0 143 123" fill="none" xmlns="http://www.w3.org/2000/svg">
<path d="M30.3801 98.3676H62.0025L78.4461 122.427L94.8898 98.3676H123.982C137.137 98.3676 142.113 87.5654 142.956 82.1642V27.6619C143.968 13.128 128.62 8.5125 120.82 8.02148H35.4396C17.2251 8.8071 12.2499 18.1691 12.0391 22.7518V84.6193C12.0391 95.2251 24.2664 98.2039 30.3801 98.3676Z" fill="#86B6F6"/>
<path d="M20.341 92.3461H51.9634L68.407 116.406L84.8507 92.3461H113.943C127.098 92.3461 132.073 81.5439 132.917 76.1427V21.6405C133.929 7.10652 118.581 2.49101 110.781 2H25.4006C7.18607 2.78562 2.21082 12.1476 2 16.7303V78.5978C2 89.2037 14.2273 92.1825 20.341 92.3461Z" stroke="#04114E" stroke-width="4"/>
<rect x="60.7109" y="48.665" width="24.5872" height="16.5587" rx="4" fill="white"/>
<path d="M75.7618 61.2099H70.2422L71.6506 56.9266C70.0671 55.4236 70.7878 53.8205 71.3461 53.2068C72.9601 52.1247 74.3279 52.9563 74.8101 53.5074C75.7846 55.1606 74.8355 56.4757 74.2391 56.9266L75.7618 61.2099Z" fill="#86B6F6"/>
<path d="M64.2188 41.6377V48.6651H68.4806V42.894C68.9498 38.9053 72.169 38.1961 73.72 38.34C76.8167 38.4657 78.034 41.4284 78.2555 42.894V48.6651H82.2828V41.6377C81.4383 37.7118 78.7508 35.8405 77.5126 35.3956C74.6662 33.9823 70.983 34.8067 69.4972 35.3956C66.0877 36.2436 64.5576 39.9104 64.2188 41.6377Z" fill="white" stroke="white"/>
</svg>
