<svg width="40" height="32" viewBox="0 0 40 32" fill="none" xmlns="http://www.w3.org/2000/svg">
<path fill-rule="evenodd" clip-rule="evenodd" d="M2.344 2.344C-2.38419e-07 4.686 0 8.458 0 16C0 23.542 -2.38419e-07 27.314 2.344 29.656C4.686 32 8.458 32 16 32H24C31.542 32 35.314 32 37.656 29.656C40 27.314 40 23.542 40 16C40 8.458 40 4.686 37.656 2.344C35.314 -2.38419e-07 31.542 0 24 0H16C8.458 0 4.686 -2.38419e-07 2.344 2.344ZM33.152 7.04C33.4065 7.34558 33.5292 7.73971 33.4932 8.13575C33.4572 8.53179 33.2654 8.89733 32.96 9.152L28.568 12.812C26.794 14.292 25.358 15.488 24.088 16.304C22.768 17.154 21.482 17.69 20 17.69C18.518 17.69 17.232 17.152 15.91 16.304C14.642 15.488 13.206 14.29 11.432 12.814L7.04 9.154C6.73421 8.89939 6.54208 8.53374 6.50588 8.13747C6.46969 7.74121 6.59239 7.3468 6.847 7.041C7.10161 6.73521 7.46726 6.54308 7.86353 6.50688C8.25979 6.47069 8.65421 6.59339 8.96 6.848L13.28 10.446C15.146 12 16.44 13.076 17.536 13.78C18.594 14.46 19.312 14.69 20.002 14.69C20.692 14.69 21.41 14.462 22.468 13.78C23.562 13.076 24.858 12 26.724 10.446L31.042 6.846C31.3478 6.59173 31.7421 6.46934 32.1382 6.50572C32.5342 6.5421 32.8976 6.73428 33.152 7.04Z" fill="#86B6F6"/>
</svg>
