<svg width="36" height="46" viewBox="0 0 36 46" fill="none" xmlns="http://www.w3.org/2000/svg">
<path fill-rule="evenodd" clip-rule="evenodd" d="M20.375 2.32911C20.375 1.71139 20.1249 1.11898 19.6796 0.682182C19.2344 0.245388 18.6305 0 18.0008 0C17.3711 0 16.7672 0.245388 16.3219 0.682182C15.8766 1.11898 15.6265 1.71139 15.6265 2.32911V4.07595H14.304C11.7589 4.07578 9.30939 5.02714 7.45414 6.73635C5.59889 8.44555 4.47738 10.7841 4.31793 13.2759L3.79322 21.507C3.59314 24.6454 2.51896 27.6697 0.687694 30.2505C0.309316 30.784 0.0781208 31.4045 0.0165926 32.0517C-0.0449356 32.6988 0.0652973 33.3505 0.336571 33.9435C0.607844 34.5364 1.03092 35.0504 1.56467 35.4355C2.09841 35.8205 2.72464 36.0635 3.38247 36.1409L11.4716 37.0911V39.5949C11.4716 41.2937 12.1595 42.9228 13.3839 44.124C14.6084 45.3252 16.2691 46 18.0008 46C19.7324 46 21.3931 45.3252 22.6176 44.124C23.8421 42.9228 24.53 41.2937 24.53 39.5949V37.0911L32.619 36.1385C33.2765 36.061 33.9023 35.818 34.4357 35.4331C34.9691 35.0482 35.392 34.5344 35.6632 33.9418C35.9344 33.3492 36.0448 32.6979 35.9836 32.0511C35.9223 31.4043 35.6916 30.784 35.3138 30.2505C33.4825 27.6698 32.4083 24.6454 32.2083 21.507L31.6836 13.2783C31.5247 10.786 30.4035 8.44689 28.5482 6.7372C26.6928 5.0275 24.243 4.07582 21.6975 4.07595H20.375V2.32911ZM15.0329 39.5949C15.0329 40.3671 15.3456 41.1076 15.9022 41.6536C16.4588 42.1996 17.2136 42.5063 18.0008 42.5063C18.7879 42.5063 19.5428 42.1996 20.0993 41.6536C20.6559 41.1076 20.9686 40.3671 20.9686 39.5949V37.8481H15.0329V39.5949Z" fill="#86B6F6"/>
</svg>
