<svg width="52" height="48" viewBox="0 0 52 48" fill="none" xmlns="http://www.w3.org/2000/svg">
<path fill-rule="evenodd" clip-rule="evenodd" d="M1.33943 10.3444C-1.19209e-07 11.6887 0 13.8498 0 18.1765V38.8235C0 43.1502 -1.19209e-07 45.3113 1.33943 46.6556C2.67886 48 4.832 48 9.14286 48H22.8571C27.168 48 29.3211 48 30.6606 46.6556C32 45.3113 32 43.1502 32 38.8235V18.1765C32 13.8498 32 11.6887 30.6606 10.3444C29.3211 9 27.168 9 22.8571 9H9.14286C4.832 9 2.67886 9 1.33943 10.3444ZM9.14286 18.1765C8.53665 18.1765 7.95527 18.4182 7.52661 18.8484C7.09796 19.2786 6.85714 19.8622 6.85714 20.4706C6.85714 21.079 7.09796 21.6625 7.52661 22.0928C7.95527 22.523 8.53665 22.7647 9.14286 22.7647H22.8571C23.4634 22.7647 24.0447 22.523 24.4734 22.0928C24.902 21.6625 25.1429 21.079 25.1429 20.4706C25.1429 19.8622 24.902 19.2786 24.4734 18.8484C24.0447 18.4182 23.4634 18.1765 22.8571 18.1765H9.14286ZM9.14286 27.3529C8.53665 27.3529 7.95527 27.5946 7.52661 28.0249C7.09796 28.4551 6.85714 29.0386 6.85714 29.6471C6.85714 30.2555 7.09796 30.839 7.52661 31.2692C7.95527 31.6995 8.53665 31.9412 9.14286 31.9412H22.8571C23.4634 31.9412 24.0447 31.6995 24.4734 31.2692C24.902 30.839 25.1429 30.2555 25.1429 29.6471C25.1429 29.0386 24.902 28.4551 24.4734 28.0249C24.0447 27.5946 23.4634 27.3529 22.8571 27.3529H9.14286ZM9.14286 36.5294C8.53665 36.5294 7.95527 36.7711 7.52661 37.2013C7.09796 37.6316 6.85714 38.2151 6.85714 38.8235C6.85714 39.432 7.09796 40.0155 7.52661 40.4457C7.95527 40.8759 8.53665 41.1176 9.14286 41.1176H18.2857C18.8919 41.1176 19.4733 40.8759 19.902 40.4457C20.3306 40.0155 20.5714 39.432 20.5714 38.8235C20.5714 38.2151 20.3306 37.6316 19.902 37.2013C19.4733 36.7711 18.8919 36.5294 18.2857 36.5294H9.14286Z" fill="#C40C0C"/>
<g filter="url(#filter0_d_0_1)">
<circle cx="35" cy="13" r="13" fill="#C40C0C"/>
</g>
<path d="M34.184 18V8.9L34.982 9.726H32.112V8.2H36.004V18H34.184Z" fill="white"/>
<defs>
<filter id="filter0_d_0_1" x="18" y="0" width="34" height="34" filterUnits="userSpaceOnUse" color-interpolation-filters="sRGB">
<feFlood flood-opacity="0" result="BackgroundImageFix"/>
<feColorMatrix in="SourceAlpha" type="matrix" values="0 0 0 0 0 0 0 0 0 0 0 0 0 0 0 0 0 0 127 0" result="hardAlpha"/>
<feOffset dy="4"/>
<feGaussianBlur stdDeviation="2"/>
<feComposite in2="hardAlpha" operator="out"/>
<feColorMatrix type="matrix" values="0 0 0 0 0 0 0 0 0 0 0 0 0 0 0 0 0 0 0.25 0"/>
<feBlend mode="normal" in2="BackgroundImageFix" result="effect1_dropShadow_0_1"/>
<feBlend mode="normal" in="SourceGraphic" in2="effect1_dropShadow_0_1" result="shape"/>
</filter>
</defs>
</svg>
