<svg width="32" height="39" viewBox="0 0 32 39" fill="none" xmlns="http://www.w3.org/2000/svg">
<path fill-rule="evenodd" clip-rule="evenodd" d="M1.33943 1.34435C-1.19209e-07 2.68871 0 4.84976 0 9.17647V29.8235C0 34.1502 -1.19209e-07 36.3113 1.33943 37.6556C2.67886 39 4.832 39 9.14286 39H22.8571C27.168 39 29.3211 39 30.6606 37.6556C32 36.3113 32 34.1502 32 29.8235V9.17647C32 4.84976 32 2.68871 30.6606 1.34435C29.3211 -2.38419e-07 27.168 0 22.8571 0H9.14286C4.832 0 2.67886 -2.38419e-07 1.33943 1.34435ZM9.14286 9.17647C8.53665 9.17647 7.95527 9.41817 7.52661 9.8484C7.09796 10.2786 6.85714 10.8622 6.85714 11.4706C6.85714 12.079 7.09796 12.6625 7.52661 13.0928C7.95527 13.523 8.53665 13.7647 9.14286 13.7647H22.8571C23.4634 13.7647 24.0447 13.523 24.4734 13.0928C24.902 12.6625 25.1429 12.079 25.1429 11.4706C25.1429 10.8622 24.902 10.2786 24.4734 9.8484C24.0447 9.41817 23.4634 9.17647 22.8571 9.17647H9.14286ZM9.14286 18.3529C8.53665 18.3529 7.95527 18.5946 7.52661 19.0249C7.09796 19.4551 6.85714 20.0386 6.85714 20.6471C6.85714 21.2555 7.09796 21.839 7.52661 22.2692C7.95527 22.6995 8.53665 22.9412 9.14286 22.9412H22.8571C23.4634 22.9412 24.0447 22.6995 24.4734 22.2692C24.902 21.839 25.1429 21.2555 25.1429 20.6471C25.1429 20.0386 24.902 19.4551 24.4734 19.0249C24.0447 18.5946 23.4634 18.3529 22.8571 18.3529H9.14286ZM9.14286 27.5294C8.53665 27.5294 7.95527 27.7711 7.52661 28.2013C7.09796 28.6316 6.85714 29.2151 6.85714 29.8235C6.85714 30.432 7.09796 31.0155 7.52661 31.4457C7.95527 31.8759 8.53665 32.1176 9.14286 32.1176H18.2857C18.8919 32.1176 19.4733 31.8759 19.902 31.4457C20.3306 31.0155 20.5714 30.432 20.5714 29.8235C20.5714 29.2151 20.3306 28.6316 19.902 28.2013C19.4733 27.7711 18.8919 27.5294 18.2857 27.5294H9.14286Z" fill="white"/>
</svg>
