<svg width="49" height="50" viewBox="0 0 49 50" fill="none" xmlns="http://www.w3.org/2000/svg">
<path fill-rule="evenodd" clip-rule="evenodd" d="M1.33943 12.3444C-1.19209e-07 13.6887 0 15.8498 0 20.1765V40.8235C0 45.1502 -1.19209e-07 47.3113 1.33943 48.6556C2.67886 50 4.832 50 9.14286 50H22.8571C27.168 50 29.3211 50 30.6606 48.6556C32 47.3113 32 45.1502 32 40.8235V20.1765C32 15.8498 32 13.6887 30.6606 12.3444C29.3211 11 27.168 11 22.8571 11H9.14286C4.832 11 2.67886 11 1.33943 12.3444ZM9.14286 20.1765C8.53665 20.1765 7.95527 20.4182 7.52661 20.8484C7.09796 21.2786 6.85714 21.8622 6.85714 22.4706C6.85714 23.079 7.09796 23.6625 7.52661 24.0928C7.95527 24.523 8.53665 24.7647 9.14286 24.7647H22.8571C23.4634 24.7647 24.0447 24.523 24.4734 24.0928C24.902 23.6625 25.1429 23.079 25.1429 22.4706C25.1429 21.8622 24.902 21.2786 24.4734 20.8484C24.0447 20.4182 23.4634 20.1765 22.8571 20.1765H9.14286ZM9.14286 29.3529C8.53665 29.3529 7.95527 29.5946 7.52661 30.0249C7.09796 30.4551 6.85714 31.0386 6.85714 31.6471C6.85714 32.2555 7.09796 32.839 7.52661 33.2692C7.95527 33.6995 8.53665 33.9412 9.14286 33.9412H22.8571C23.4634 33.9412 24.0447 33.6995 24.4734 33.2692C24.902 32.839 25.1429 32.2555 25.1429 31.6471C25.1429 31.0386 24.902 30.4551 24.4734 30.0249C24.0447 29.5946 23.4634 29.3529 22.8571 29.3529H9.14286ZM9.14286 38.5294C8.53665 38.5294 7.95527 38.7711 7.52661 39.2013C7.09796 39.6316 6.85714 40.2151 6.85714 40.8235C6.85714 41.432 7.09796 42.0155 7.52661 42.4457C7.95527 42.8759 8.53665 43.1176 9.14286 43.1176H18.2857C18.8919 43.1176 19.4733 42.8759 19.902 42.4457C20.3306 42.0155 20.5714 41.432 20.5714 40.8235C20.5714 40.2151 20.3306 39.6316 19.902 39.2013C19.4733 38.7711 18.8919 38.5294 18.2857 38.5294H9.14286Z" fill="#FBC918"/>
<g filter="url(#filter0_d_0_1)">
<ellipse cx="32.5" cy="12" rx="12.5" ry="12" fill="#FBC918"/>
</g>
<path d="M31.184 18V8.9L31.982 9.726H29.112V8.2H33.004V18H31.184Z" fill="white"/>
<defs>
<filter id="filter0_d_0_1" x="16" y="0" width="33" height="32" filterUnits="userSpaceOnUse" color-interpolation-filters="sRGB">
<feFlood flood-opacity="0" result="BackgroundImageFix"/>
<feColorMatrix in="SourceAlpha" type="matrix" values="0 0 0 0 0 0 0 0 0 0 0 0 0 0 0 0 0 0 127 0" result="hardAlpha"/>
<feOffset dy="4"/>
<feGaussianBlur stdDeviation="2"/>
<feComposite in2="hardAlpha" operator="out"/>
<feColorMatrix type="matrix" values="0 0 0 0 0 0 0 0 0 0 0 0 0 0 0 0 0 0 0.25 0"/>
<feBlend mode="normal" in2="BackgroundImageFix" result="effect1_dropShadow_0_1"/>
<feBlend mode="normal" in="SourceGraphic" in2="effect1_dropShadow_0_1" result="shape"/>
</filter>
</defs>
</svg>
