<svg width="43" height="44" viewBox="0 0 43 44" fill="none" xmlns="http://www.w3.org/2000/svg">
<path d="M21.5081 16.0094C20.0262 16.0094 18.6385 16.5798 17.5879 17.6224C16.5421 18.6649 15.9623 20.0419 15.9623 21.5122C15.9623 22.9826 16.5421 24.3595 17.5879 25.4021C18.6385 26.4397 20.0262 27.0151 21.5081 27.0151C22.9899 27.0151 24.3776 26.4397 25.4283 25.4021C26.474 24.3595 27.0538 22.9826 27.0538 21.5122C27.0538 20.0419 26.474 18.6649 25.4283 17.6224C24.9151 17.1093 24.3043 16.7024 23.6313 16.4255C22.9583 16.1486 22.2366 16.0072 21.5081 16.0094ZM41.9417 27.5904L38.7004 24.8415C38.8541 23.9071 38.9334 22.9531 38.9334 22.004C38.9334 21.0549 38.8541 20.096 38.7004 19.1665L41.9417 16.4176C42.1865 16.2096 42.3618 15.9326 42.4441 15.6233C42.5264 15.3141 42.5119 14.9874 42.4026 14.6865L42.358 14.5587C41.466 12.0836 40.1294 9.78934 38.413 7.78709L38.3238 7.68382C38.1154 7.44065 37.8376 7.26585 37.527 7.18245C37.2165 7.09906 36.8878 7.11098 36.5842 7.21664L32.5599 8.63784C31.0731 7.4281 29.4178 6.47408 27.6238 5.8102L26.8457 1.63512C26.787 1.3206 26.6332 1.03124 26.4048 0.805499C26.1764 0.579756 25.8842 0.428311 25.567 0.371282L25.4332 0.346694C22.8561 -0.115565 20.1402 -0.115565 17.5631 0.346694L17.4293 0.371282C17.1121 0.428311 16.8199 0.579756 16.5915 0.805499C16.3631 1.03124 16.2093 1.3206 16.1506 1.63512L15.3676 5.82987C13.5905 6.49901 11.935 7.45072 10.4661 8.64768L6.41207 7.21664C6.10859 7.11014 5.77964 7.09779 5.46892 7.18123C5.1582 7.26468 4.88043 7.43997 4.67251 7.68382L4.58331 7.78709C2.86995 9.79145 1.53371 12.0851 0.638328 14.5587L0.593723 14.6865C0.370703 15.3012 0.554076 15.9897 1.05463 16.4176L4.33551 19.196C4.18187 20.1205 4.10753 21.0647 4.10753 21.9991C4.10753 22.9433 4.18187 23.8875 4.33551 24.8021L1.06454 27.5806C0.819696 27.7886 0.644455 28.0656 0.562124 28.3748C0.479792 28.684 0.494271 29.0108 0.603635 29.3116L0.648239 29.4395C1.54528 31.913 2.86853 34.1998 4.59322 36.2111L4.68243 36.3143C4.89085 36.5575 5.16863 36.7323 5.47916 36.8157C5.7897 36.8991 6.11841 36.8872 6.42198 36.7815L10.476 35.3505C11.9529 36.5553 13.5983 37.5093 15.3775 38.1683L16.1605 42.363C16.2192 42.6776 16.373 42.9669 16.6014 43.1927C16.8298 43.4184 17.122 43.5699 17.4392 43.6269L17.573 43.6515C20.1755 44.1162 22.8407 44.1162 25.4431 43.6515L25.5769 43.6269C25.8941 43.5699 26.1863 43.4184 26.4147 43.1927C26.6431 42.9669 26.7969 42.6776 26.8556 42.363L27.6337 38.188C29.4278 37.5192 31.0831 36.5701 32.5699 35.3603L36.5941 36.7815C36.8976 36.888 37.2266 36.9004 37.5373 36.8169C37.848 36.7335 38.1258 36.5582 38.3337 36.3143L38.4229 36.2111C40.1476 34.1899 41.4708 31.913 42.3679 29.4395L42.4125 29.3116C42.6256 28.7018 42.4422 28.0183 41.9417 27.5904ZM21.5081 30.1574C16.6958 30.1574 12.7954 26.2873 12.7954 21.5122C12.7954 16.7372 16.6958 12.867 21.5081 12.867C26.3203 12.867 30.2207 16.7372 30.2207 21.5122C30.2207 26.2873 26.3203 30.1574 21.5081 30.1574Z" fill="#86B6F6"/>
</svg>
