<svg width="63" height="63" viewBox="0 0 63 63" fill="none" xmlns="http://www.w3.org/2000/svg">
<path d="M32 37C29.6131 37 27.3239 37.9482 25.636 39.636C23.9482 41.3239 23 43.6131 23 46C23 48.3869 23.9482 50.6761 25.636 52.364C27.3239 54.0518 29.6131 55 32 55C34.3869 55 36.6761 54.0518 38.364 52.364C40.0518 50.6761 41 48.3869 41 46C41 43.6131 40.0518 41.3239 38.364 39.636C36.6761 37.9482 34.3869 37 32 37ZM28.1429 46C28.1429 44.977 28.5492 43.9959 29.2726 43.2726C29.9959 42.5492 30.977 42.1429 32 42.1429C33.023 42.1429 34.0041 42.5492 34.7274 43.2726C35.4508 43.9959 35.8571 44.977 35.8571 46C35.8571 47.023 35.4508 48.0041 34.7274 48.7274C34.0041 49.4508 33.023 49.8571 32 49.8571C30.977 49.8571 29.9959 49.4508 29.2726 48.7274C28.5492 48.0041 28.1429 47.023 28.1429 46Z" fill="#0AB307"/>
<path d="M48.078 13.1574L38.541 0L3.474 27.5664L1.53 27.5457V27.5752H0V63H63V27.5752H60.114L54.372 11.0466L48.078 13.1574ZM53.775 27.5752H23.691L46.098 20.0593L50.664 18.6216L53.775 27.5752ZM42.15 15.147L19.02 22.9051L37.338 8.5049L42.15 15.147ZM6 51.6906V38.8787C7.26653 38.4388 8.41695 37.7256 9.36692 36.7913C10.3169 35.8571 11.0423 34.7254 11.49 33.4794H51.51C51.9573 34.726 52.6826 35.8582 53.6326 36.793C54.5825 37.7278 55.7332 38.4415 57 38.8816V51.6936C55.7332 52.1338 54.5825 52.8474 53.6326 53.7822C52.6826 54.717 51.9573 55.8493 51.51 57.0959H11.496C11.0466 55.8492 10.3199 54.7169 9.36906 53.7818C8.41822 52.8467 7.2672 52.1322 6 51.6906Z" fill="#0AB307"/>
</svg>
