<svg width="32" height="32" viewBox="0 0 32 32" fill="none" xmlns="http://www.w3.org/2000/svg">
<path d="M17.1308 0.468463L31.5282 14.8686C32.536 15.8766 31.8225 17.5998 30.3972 17.5998H28.7975V27.1999C28.7975 28.473 28.2918 29.6939 27.3918 30.5941C26.4918 31.4943 25.2712 32 23.9983 32H22.3986V20.7999C22.3987 19.5755 21.931 18.3974 21.0912 17.5066C20.2515 16.6158 19.1031 16.0797 17.8811 16.0078L17.5995 15.9998H14.4001C13.1273 15.9998 11.9067 16.5055 11.0066 17.4057C10.1066 18.3059 9.60102 19.5268 9.60102 20.7999V32H8.00131C6.72851 32 5.50784 31.4943 4.60783 30.5941C3.70782 29.6939 3.2022 28.473 3.2022 27.1999V17.5998H1.6025C0.178763 17.5998 -0.536304 15.8766 0.471509 14.8686L14.8688 0.468463C15.1688 0.168506 15.5756 0 15.9998 0C16.424 0 16.8308 0.168506 17.1308 0.468463ZM17.5995 19.1999C18.0238 19.1999 18.4307 19.3684 18.7307 19.6685C19.0307 19.9686 19.1992 20.3755 19.1992 20.7999V32H12.8004V20.7999C12.8005 20.408 12.9443 20.0297 13.2047 19.7369C13.4651 19.444 13.8238 19.2569 14.213 19.2111L14.4001 19.1999H17.5995Z" fill="white"/>
</svg>
