<svg width="273" height="41" viewBox="0 0 273 41" fill="none" xmlns="http://www.w3.org/2000/svg">
<rect width="273" height="41" rx="20" fill="#04114E"/>
<path d="M70.162 26V16.2H72.43V24.152H77.344V26H70.162ZM82.0139 26.112C81.2112 26.112 80.4972 25.944 79.8719 25.608C79.2559 25.272 78.7659 24.8147 78.4019 24.236C78.0472 23.648 77.8699 22.9807 77.8699 22.234C77.8699 21.478 78.0472 20.8107 78.4019 20.232C78.7659 19.644 79.2559 19.1867 79.8719 18.86C80.4972 18.524 81.2112 18.356 82.0139 18.356C82.8072 18.356 83.5165 18.524 84.1419 18.86C84.7672 19.1867 85.2572 19.6393 85.6119 20.218C85.9665 20.7967 86.1439 21.4687 86.1439 22.234C86.1439 22.9807 85.9665 23.648 85.6119 24.236C85.2572 24.8147 84.7672 25.272 84.1419 25.608C83.5165 25.944 82.8072 26.112 82.0139 26.112ZM82.0139 24.32C82.3779 24.32 82.7045 24.236 82.9939 24.068C83.2832 23.9 83.5119 23.662 83.6799 23.354C83.8479 23.0367 83.9319 22.6633 83.9319 22.234C83.9319 21.7953 83.8479 21.422 83.6799 21.114C83.5119 20.806 83.2832 20.568 82.9939 20.4C82.7045 20.232 82.3779 20.148 82.0139 20.148C81.6499 20.148 81.3232 20.232 81.0339 20.4C80.7445 20.568 80.5112 20.806 80.3339 21.114C80.1659 21.422 80.0819 21.7953 80.0819 22.234C80.0819 22.6633 80.1659 23.0367 80.3339 23.354C80.5112 23.662 80.7445 23.9 81.0339 24.068C81.3232 24.236 81.6499 24.32 82.0139 24.32ZM91.1457 28.828C90.4364 28.828 89.7504 28.7393 89.0877 28.562C88.4344 28.394 87.8884 28.1373 87.4497 27.792L88.3177 26.224C88.635 26.4853 89.0364 26.6907 89.5217 26.84C90.0164 26.9987 90.5017 27.078 90.9777 27.078C91.7524 27.078 92.3124 26.9053 92.6577 26.56C93.0124 26.2147 93.1897 25.7013 93.1897 25.02V23.886L93.3297 21.996L93.3017 20.092V18.468H95.3737V24.74C95.3737 26.14 95.0097 27.1713 94.2817 27.834C93.5537 28.4967 92.5084 28.828 91.1457 28.828ZM90.8097 25.636C90.1097 25.636 89.475 25.4867 88.9057 25.188C88.3457 24.88 87.893 24.4553 87.5477 23.914C87.2117 23.3633 87.0437 22.724 87.0437 21.996C87.0437 21.2587 87.2117 20.6193 87.5477 20.078C87.893 19.5273 88.3457 19.1027 88.9057 18.804C89.475 18.5053 90.1097 18.356 90.8097 18.356C91.4444 18.356 92.0044 18.4867 92.4897 18.748C92.975 19 93.353 19.3967 93.6237 19.938C93.8944 20.47 94.0297 21.156 94.0297 21.996C94.0297 22.8267 93.8944 23.5127 93.6237 24.054C93.353 24.586 92.975 24.9827 92.4897 25.244C92.0044 25.5053 91.4444 25.636 90.8097 25.636ZM91.2437 23.844C91.6264 23.844 91.967 23.7693 92.2657 23.62C92.5644 23.4613 92.7977 23.242 92.9657 22.962C93.1337 22.682 93.2177 22.36 93.2177 21.996C93.2177 21.6227 93.1337 21.3007 92.9657 21.03C92.7977 20.75 92.5644 20.5353 92.2657 20.386C91.967 20.2273 91.6264 20.148 91.2437 20.148C90.861 20.148 90.5204 20.2273 90.2217 20.386C89.923 20.5353 89.685 20.75 89.5077 21.03C89.3397 21.3007 89.2557 21.6227 89.2557 21.996C89.2557 22.36 89.3397 22.682 89.5077 22.962C89.685 23.242 89.923 23.4613 90.2217 23.62C90.5204 23.7693 90.861 23.844 91.2437 23.844ZM97.4064 26V18.468H99.5904V26H97.4064ZM98.4984 17.418C98.0971 17.418 97.7704 17.3013 97.5184 17.068C97.2664 16.8347 97.1404 16.5453 97.1404 16.2C97.1404 15.8547 97.2664 15.5653 97.5184 15.332C97.7704 15.0987 98.0971 14.982 98.4984 14.982C98.8998 14.982 99.2264 15.094 99.4784 15.318C99.7304 15.5327 99.8564 15.8127 99.8564 16.158C99.8564 16.522 99.7304 16.8253 99.4784 17.068C99.2358 17.3013 98.9091 17.418 98.4984 17.418ZM106.195 18.356C106.793 18.356 107.325 18.4773 107.791 18.72C108.267 18.9533 108.641 19.3173 108.911 19.812C109.182 20.2973 109.317 20.9227 109.317 21.688V26H107.133V22.024C107.133 21.4173 106.998 20.9693 106.727 20.68C106.466 20.3907 106.093 20.246 105.607 20.246C105.262 20.246 104.949 20.3207 104.669 20.47C104.399 20.61 104.184 20.8293 104.025 21.128C103.876 21.4267 103.801 21.8093 103.801 22.276V26H101.617V18.468H103.703V20.554L103.311 19.924C103.582 19.42 103.969 19.0327 104.473 18.762C104.977 18.4913 105.551 18.356 106.195 18.356ZM118.496 26.112C117.787 26.112 117.147 25.9533 116.578 25.636C116.009 25.3093 115.556 24.8567 115.22 24.278C114.893 23.6993 114.73 23.018 114.73 22.234C114.73 21.4407 114.893 20.7547 115.22 20.176C115.556 19.5973 116.009 19.1493 116.578 18.832C117.147 18.5147 117.787 18.356 118.496 18.356C119.131 18.356 119.686 18.496 120.162 18.776C120.638 19.056 121.007 19.4807 121.268 20.05C121.529 20.6193 121.66 21.3473 121.66 22.234C121.66 23.1113 121.534 23.8393 121.282 24.418C121.03 24.9873 120.666 25.412 120.19 25.692C119.723 25.972 119.159 26.112 118.496 26.112ZM118.874 24.32C119.229 24.32 119.551 24.236 119.84 24.068C120.129 23.9 120.358 23.662 120.526 23.354C120.703 23.0367 120.792 22.6633 120.792 22.234C120.792 21.7953 120.703 21.422 120.526 21.114C120.358 20.806 120.129 20.568 119.84 20.4C119.551 20.232 119.229 20.148 118.874 20.148C118.51 20.148 118.183 20.232 117.894 20.4C117.605 20.568 117.371 20.806 117.194 21.114C117.026 21.422 116.942 21.7953 116.942 22.234C116.942 22.6633 117.026 23.0367 117.194 23.354C117.371 23.662 117.605 23.9 117.894 24.068C118.183 24.236 118.51 24.32 118.874 24.32ZM120.848 26V24.46L120.89 22.22L120.75 19.994V15.612H122.934V26H120.848ZM128.693 26.112C127.835 26.112 127.079 25.944 126.425 25.608C125.781 25.272 125.282 24.8147 124.927 24.236C124.573 23.648 124.395 22.9807 124.395 22.234C124.395 21.478 124.568 20.8107 124.913 20.232C125.268 19.644 125.749 19.1867 126.355 18.86C126.962 18.524 127.648 18.356 128.413 18.356C129.151 18.356 129.813 18.5147 130.401 18.832C130.999 19.14 131.47 19.588 131.815 20.176C132.161 20.7547 132.333 21.45 132.333 22.262C132.333 22.346 132.329 22.444 132.319 22.556C132.31 22.6587 132.301 22.7567 132.291 22.85H126.173V21.576H131.143L130.303 21.954C130.303 21.562 130.224 21.2213 130.065 20.932C129.907 20.6427 129.687 20.4187 129.407 20.26C129.127 20.092 128.801 20.008 128.427 20.008C128.054 20.008 127.723 20.092 127.433 20.26C127.153 20.4187 126.934 20.6473 126.775 20.946C126.617 21.2353 126.537 21.5807 126.537 21.982V22.318C126.537 22.7287 126.626 23.0927 126.803 23.41C126.99 23.718 127.247 23.956 127.573 24.124C127.909 24.2827 128.301 24.362 128.749 24.362C129.151 24.362 129.501 24.3013 129.799 24.18C130.107 24.0587 130.387 23.8767 130.639 23.634L131.801 24.894C131.456 25.286 131.022 25.5893 130.499 25.804C129.977 26.0093 129.375 26.112 128.693 26.112ZM138.365 18.356C138.963 18.356 139.495 18.4773 139.961 18.72C140.437 18.9533 140.811 19.3173 141.081 19.812C141.352 20.2973 141.487 20.9227 141.487 21.688V26H139.303V22.024C139.303 21.4173 139.168 20.9693 138.897 20.68C138.636 20.3907 138.263 20.246 137.777 20.246C137.432 20.246 137.119 20.3207 136.839 20.47C136.569 20.61 136.354 20.8293 136.195 21.128C136.046 21.4267 135.971 21.8093 135.971 22.276V26H133.787V18.468H135.873V20.554L135.481 19.924C135.752 19.42 136.139 19.0327 136.643 18.762C137.147 18.4913 137.721 18.356 138.365 18.356ZM147.064 28.828C146.354 28.828 145.668 28.7393 145.006 28.562C144.352 28.394 143.806 28.1373 143.368 27.792L144.236 26.224C144.553 26.4853 144.954 26.6907 145.44 26.84C145.934 26.9987 146.42 27.078 146.896 27.078C147.67 27.078 148.23 26.9053 148.576 26.56C148.93 26.2147 149.108 25.7013 149.108 25.02V23.886L149.248 21.996L149.22 20.092V18.468H151.292V24.74C151.292 26.14 150.928 27.1713 150.2 27.834C149.472 28.4967 148.426 28.828 147.064 28.828ZM146.728 25.636C146.028 25.636 145.393 25.4867 144.824 25.188C144.264 24.88 143.811 24.4553 143.466 23.914C143.13 23.3633 142.962 22.724 142.962 21.996C142.962 21.2587 143.13 20.6193 143.466 20.078C143.811 19.5273 144.264 19.1027 144.824 18.804C145.393 18.5053 146.028 18.356 146.728 18.356C147.362 18.356 147.922 18.4867 148.408 18.748C148.893 19 149.271 19.3967 149.542 19.938C149.812 20.47 149.948 21.156 149.948 21.996C149.948 22.8267 149.812 23.5127 149.542 24.054C149.271 24.586 148.893 24.9827 148.408 25.244C147.922 25.5053 147.362 25.636 146.728 25.636ZM147.162 23.844C147.544 23.844 147.885 23.7693 148.184 23.62C148.482 23.4613 148.716 23.242 148.884 22.962C149.052 22.682 149.136 22.36 149.136 21.996C149.136 21.6227 149.052 21.3007 148.884 21.03C148.716 20.75 148.482 20.5353 148.184 20.386C147.885 20.2273 147.544 20.148 147.162 20.148C146.779 20.148 146.438 20.2273 146.14 20.386C145.841 20.5353 145.603 20.75 145.426 21.03C145.258 21.3007 145.174 21.6227 145.174 21.996C145.174 22.36 145.258 22.682 145.426 22.962C145.603 23.242 145.841 23.4613 146.14 23.62C146.438 23.7693 146.779 23.844 147.162 23.844ZM157.944 26V24.53L157.804 24.208V21.576C157.804 21.1093 157.66 20.7453 157.37 20.484C157.09 20.2227 156.656 20.092 156.068 20.092C155.667 20.092 155.27 20.1573 154.878 20.288C154.496 20.4093 154.169 20.5773 153.898 20.792L153.114 19.266C153.525 18.9767 154.02 18.7527 154.598 18.594C155.177 18.4353 155.765 18.356 156.362 18.356C157.51 18.356 158.402 18.6267 159.036 19.168C159.671 19.7093 159.988 20.554 159.988 21.702V26H157.944ZM155.648 26.112C155.06 26.112 154.556 26.014 154.136 25.818C153.716 25.6127 153.394 25.3373 153.17 24.992C152.946 24.6467 152.834 24.2593 152.834 23.83C152.834 23.382 152.942 22.99 153.156 22.654C153.38 22.318 153.73 22.0567 154.206 21.87C154.682 21.674 155.303 21.576 156.068 21.576H158.07V22.85H156.306C155.793 22.85 155.438 22.934 155.242 23.102C155.056 23.27 154.962 23.48 154.962 23.732C154.962 24.012 155.07 24.236 155.284 24.404C155.508 24.5627 155.812 24.642 156.194 24.642C156.558 24.642 156.885 24.558 157.174 24.39C157.464 24.2127 157.674 23.956 157.804 23.62L158.14 24.628C157.982 25.1133 157.692 25.482 157.272 25.734C156.852 25.986 156.311 26.112 155.648 26.112ZM166.543 18.356C167.14 18.356 167.672 18.4773 168.139 18.72C168.615 18.9533 168.988 19.3173 169.259 19.812C169.53 20.2973 169.665 20.9227 169.665 21.688V26H167.481V22.024C167.481 21.4173 167.346 20.9693 167.075 20.68C166.814 20.3907 166.44 20.246 165.955 20.246C165.61 20.246 165.297 20.3207 165.017 20.47C164.746 20.61 164.532 20.8293 164.373 21.128C164.224 21.4267 164.149 21.8093 164.149 22.276V26H161.965V18.468H164.051V20.554L163.659 19.924C163.93 19.42 164.317 19.0327 164.821 18.762C165.325 18.4913 165.899 18.356 166.543 18.356ZM177.864 20.61H182.568V22.43H177.864V20.61ZM178.032 26H175.764V16.2H183.17V18.02H178.032V26ZM188.952 26V24.53L188.812 24.208V21.576C188.812 21.1093 188.668 20.7453 188.378 20.484C188.098 20.2227 187.664 20.092 187.076 20.092C186.675 20.092 186.278 20.1573 185.886 20.288C185.504 20.4093 185.177 20.5773 184.906 20.792L184.122 19.266C184.533 18.9767 185.028 18.7527 185.606 18.594C186.185 18.4353 186.773 18.356 187.37 18.356C188.518 18.356 189.41 18.6267 190.044 19.168C190.679 19.7093 190.996 20.554 190.996 21.702V26H188.952ZM186.656 26.112C186.068 26.112 185.564 26.014 185.144 25.818C184.724 25.6127 184.402 25.3373 184.178 24.992C183.954 24.6467 183.842 24.2593 183.842 23.83C183.842 23.382 183.95 22.99 184.164 22.654C184.388 22.318 184.738 22.0567 185.214 21.87C185.69 21.674 186.311 21.576 187.076 21.576H189.078V22.85H187.314C186.801 22.85 186.446 22.934 186.25 23.102C186.064 23.27 185.97 23.48 185.97 23.732C185.97 24.012 186.078 24.236 186.292 24.404C186.516 24.5627 186.82 24.642 187.202 24.642C187.566 24.642 187.893 24.558 188.182 24.39C188.472 24.2127 188.682 23.956 188.812 23.62L189.148 24.628C188.99 25.1133 188.7 25.482 188.28 25.734C187.86 25.986 187.319 26.112 186.656 26.112ZM196.668 26.112C195.856 26.112 195.132 25.9487 194.498 25.622C193.863 25.286 193.364 24.824 193 24.236C192.645 23.648 192.468 22.9807 192.468 22.234C192.468 21.478 192.645 20.8107 193 20.232C193.364 19.644 193.863 19.1867 194.498 18.86C195.132 18.524 195.856 18.356 196.668 18.356C197.461 18.356 198.152 18.524 198.74 18.86C199.328 19.1867 199.762 19.658 200.042 20.274L198.348 21.184C198.152 20.8293 197.904 20.568 197.606 20.4C197.316 20.232 196.999 20.148 196.654 20.148C196.28 20.148 195.944 20.232 195.646 20.4C195.347 20.568 195.109 20.806 194.932 21.114C194.764 21.422 194.68 21.7953 194.68 22.234C194.68 22.6727 194.764 23.046 194.932 23.354C195.109 23.662 195.347 23.9 195.646 24.068C195.944 24.236 196.28 24.32 196.654 24.32C196.999 24.32 197.316 24.2407 197.606 24.082C197.904 23.914 198.152 23.648 198.348 23.284L200.042 24.208C199.762 24.8147 199.328 25.286 198.74 25.622C198.152 25.9487 197.461 26.112 196.668 26.112ZM204.941 26.112C204.083 26.112 203.327 25.944 202.673 25.608C202.029 25.272 201.53 24.8147 201.175 24.236C200.821 23.648 200.643 22.9807 200.643 22.234C200.643 21.478 200.816 20.8107 201.161 20.232C201.516 19.644 201.997 19.1867 202.603 18.86C203.21 18.524 203.896 18.356 204.661 18.356C205.399 18.356 206.061 18.5147 206.649 18.832C207.247 19.14 207.718 19.588 208.063 20.176C208.409 20.7547 208.581 21.45 208.581 22.262C208.581 22.346 208.577 22.444 208.567 22.556C208.558 22.6587 208.549 22.7567 208.539 22.85H202.421V21.576H207.391L206.551 21.954C206.551 21.562 206.472 21.2213 206.313 20.932C206.155 20.6427 205.935 20.4187 205.655 20.26C205.375 20.092 205.049 20.008 204.675 20.008C204.302 20.008 203.971 20.092 203.681 20.26C203.401 20.4187 203.182 20.6473 203.023 20.946C202.865 21.2353 202.785 21.5807 202.785 21.982V22.318C202.785 22.7287 202.874 23.0927 203.051 23.41C203.238 23.718 203.495 23.956 203.821 24.124C204.157 24.2827 204.549 24.362 204.997 24.362C205.399 24.362 205.749 24.3013 206.047 24.18C206.355 24.0587 206.635 23.8767 206.887 23.634L208.049 24.894C207.704 25.286 207.27 25.5893 206.747 25.804C206.225 26.0093 205.623 26.112 204.941 26.112ZM214.487 26.112C213.825 26.112 213.255 25.972 212.779 25.692C212.303 25.412 211.939 24.9873 211.687 24.418C211.435 23.8393 211.309 23.1113 211.309 22.234C211.309 21.3473 211.44 20.6193 211.701 20.05C211.972 19.4807 212.345 19.056 212.821 18.776C213.297 18.496 213.853 18.356 214.487 18.356C215.197 18.356 215.831 18.5147 216.391 18.832C216.961 19.1493 217.409 19.5973 217.735 20.176C218.071 20.7547 218.239 21.4407 218.239 22.234C218.239 23.018 218.071 23.6993 217.735 24.278C217.409 24.8567 216.961 25.3093 216.391 25.636C215.831 25.9533 215.197 26.112 214.487 26.112ZM210.035 26V15.612H212.219V19.994L212.079 22.22L212.121 24.46V26H210.035ZM214.109 24.32C214.473 24.32 214.795 24.236 215.075 24.068C215.365 23.9 215.593 23.662 215.761 23.354C215.939 23.0367 216.027 22.6633 216.027 22.234C216.027 21.7953 215.939 21.422 215.761 21.114C215.593 20.806 215.365 20.568 215.075 20.4C214.795 20.232 214.473 20.148 214.109 20.148C213.745 20.148 213.419 20.232 213.129 20.4C212.84 20.568 212.611 20.806 212.443 21.114C212.275 21.422 212.191 21.7953 212.191 22.234C212.191 22.6633 212.275 23.0367 212.443 23.354C212.611 23.662 212.84 23.9 213.129 24.068C213.419 24.236 213.745 24.32 214.109 24.32ZM223.285 26.112C222.483 26.112 221.769 25.944 221.143 25.608C220.527 25.272 220.037 24.8147 219.673 24.236C219.319 23.648 219.141 22.9807 219.141 22.234C219.141 21.478 219.319 20.8107 219.673 20.232C220.037 19.644 220.527 19.1867 221.143 18.86C221.769 18.524 222.483 18.356 223.285 18.356C224.079 18.356 224.788 18.524 225.413 18.86C226.039 19.1867 226.529 19.6393 226.883 20.218C227.238 20.7967 227.415 21.4687 227.415 22.234C227.415 22.9807 227.238 23.648 226.883 24.236C226.529 24.8147 226.039 25.272 225.413 25.608C224.788 25.944 224.079 26.112 223.285 26.112ZM223.285 24.32C223.649 24.32 223.976 24.236 224.265 24.068C224.555 23.9 224.783 23.662 224.951 23.354C225.119 23.0367 225.203 22.6633 225.203 22.234C225.203 21.7953 225.119 21.422 224.951 21.114C224.783 20.806 224.555 20.568 224.265 20.4C223.976 20.232 223.649 20.148 223.285 20.148C222.921 20.148 222.595 20.232 222.305 20.4C222.016 20.568 221.783 20.806 221.605 21.114C221.437 21.422 221.353 21.7953 221.353 22.234C221.353 22.6633 221.437 23.0367 221.605 23.354C221.783 23.662 222.016 23.9 222.305 24.068C222.595 24.236 222.921 24.32 223.285 24.32ZM232.459 26.112C231.657 26.112 230.943 25.944 230.317 25.608C229.701 25.272 229.211 24.8147 228.847 24.236C228.493 23.648 228.315 22.9807 228.315 22.234C228.315 21.478 228.493 20.8107 228.847 20.232C229.211 19.644 229.701 19.1867 230.317 18.86C230.943 18.524 231.657 18.356 232.459 18.356C233.253 18.356 233.962 18.524 234.587 18.86C235.213 19.1867 235.703 19.6393 236.057 20.218C236.412 20.7967 236.589 21.4687 236.589 22.234C236.589 22.9807 236.412 23.648 236.057 24.236C235.703 24.8147 235.213 25.272 234.587 25.608C233.962 25.944 233.253 26.112 232.459 26.112ZM232.459 24.32C232.823 24.32 233.15 24.236 233.439 24.068C233.729 23.9 233.957 23.662 234.125 23.354C234.293 23.0367 234.377 22.6633 234.377 22.234C234.377 21.7953 234.293 21.422 234.125 21.114C233.957 20.806 233.729 20.568 233.439 20.4C233.15 20.232 232.823 20.148 232.459 20.148C232.095 20.148 231.769 20.232 231.479 20.4C231.19 20.568 230.957 20.806 230.779 21.114C230.611 21.422 230.527 21.7953 230.527 22.234C230.527 22.6633 230.611 23.0367 230.779 23.354C230.957 23.662 231.19 23.9 231.479 24.068C231.769 24.236 232.095 24.32 232.459 24.32ZM239.855 24.46L239.911 21.8L243.425 18.468H246.029L242.655 21.898L241.521 22.822L239.855 24.46ZM238.049 26V15.612H240.233V26H238.049ZM243.663 26L241.115 22.836L242.487 21.142L246.309 26H243.663Z" fill="#EEF5FF"/>
<g clip-path="url(#clip0_0_1)">
<path d="M32.1247 35.0082C38.9403 33.9825 44.1663 28.1019 44.1663 21.0002C44.1663 13.1759 37.8239 6.8335 29.9997 6.8335C22.1754 6.8335 15.833 13.1759 15.833 21.0002C15.833 28.1019 21.0591 33.9839 27.8747 35.0082V25.2502H25.7497C25.1861 25.2502 24.6456 25.0263 24.2471 24.6278C23.8486 24.2292 23.6247 23.6887 23.6247 23.1252C23.6247 22.5616 23.8486 22.0211 24.2471 21.6226C24.6456 21.224 25.1861 21.0002 25.7497 21.0002H27.8747V18.1668C27.8747 16.8518 28.3971 15.5906 29.3269 14.6608C30.2568 13.7309 31.518 13.2085 32.833 13.2085H33.5413C34.1049 13.2085 34.6454 13.4324 35.0439 13.8309C35.4425 14.2294 35.6663 14.7699 35.6663 15.3335C35.6663 15.8971 35.4425 16.4376 35.0439 16.8361C34.6454 17.2346 34.1049 17.4585 33.5413 17.4585H32.833C32.6451 17.4585 32.465 17.5331 32.3321 17.666C32.1993 17.7988 32.1247 17.979 32.1247 18.1668V21.0002H34.2497C34.8133 21.0002 35.3538 21.224 35.7523 21.6226C36.1508 22.0211 36.3747 22.5616 36.3747 23.1252C36.3747 23.6887 36.1508 24.2292 35.7523 24.6278C35.3538 25.0263 34.8133 25.2502 34.2497 25.2502H32.1247V35.0082Z" fill="#EEF5FF"/>
</g>
<defs>
<clipPath id="clip0_0_1">
<rect width="34" height="34" fill="white" transform="translate(13 4)"/>
</clipPath>
</defs>
</svg>

