<svg width="273" height="41" viewBox="0 0 273 41" fill="none" xmlns="http://www.w3.org/2000/svg">
<rect x="0.5" y="0.5" width="272" height="40" rx="19.5" fill="#EEF5FF" stroke="#04114E"/>
<path d="M73.058 26V17.04L74.038 18.02H71.098V16.2H75.326V26H73.058ZM76.9444 26V24.53L80.7244 20.96C81.0231 20.6893 81.2424 20.4467 81.3824 20.232C81.5224 20.0173 81.6158 19.8213 81.6624 19.644C81.7184 19.4667 81.7464 19.3033 81.7464 19.154C81.7464 18.762 81.6111 18.4633 81.3404 18.258C81.0791 18.0433 80.6918 17.936 80.1784 17.936C79.7678 17.936 79.3851 18.0153 79.0304 18.174C78.6851 18.3327 78.3911 18.58 78.1484 18.916L76.4964 17.852C76.8698 17.292 77.3924 16.8487 78.0644 16.522C78.7364 16.1953 79.5111 16.032 80.3884 16.032C81.1164 16.032 81.7511 16.1533 82.2924 16.396C82.8431 16.6293 83.2678 16.9607 83.5664 17.39C83.8744 17.8193 84.0284 18.3327 84.0284 18.93C84.0284 19.2473 83.9864 19.5647 83.9024 19.882C83.8278 20.19 83.6691 20.5167 83.4264 20.862C83.1931 21.2073 82.8478 21.5947 82.3904 22.024L79.2544 24.978L78.8204 24.152H84.3504V26H76.9444ZM88.4642 26.168C87.7829 26.168 87.1062 26.0793 86.4342 25.902C85.7622 25.7153 85.1929 25.454 84.7262 25.118L85.6082 23.382C85.9816 23.6527 86.4156 23.8673 86.9102 24.026C87.4049 24.1847 87.9042 24.264 88.4082 24.264C88.9776 24.264 89.4256 24.152 89.7522 23.928C90.0789 23.704 90.2422 23.396 90.2422 23.004C90.2422 22.6307 90.0976 22.3367 89.8082 22.122C89.5189 21.9073 89.0522 21.8 88.4082 21.8H87.3722V20.302L90.1022 17.208L90.3542 18.02H85.2162V16.2H92.0762V17.67L89.3602 20.764L88.2122 20.106H88.8702C90.0742 20.106 90.9842 20.3767 91.6002 20.918C92.2162 21.4593 92.5242 22.1547 92.5242 23.004C92.5242 23.5547 92.3796 24.0727 92.0902 24.558C91.8009 25.034 91.3576 25.4213 90.7602 25.72C90.1629 26.0187 89.3976 26.168 88.4642 26.168ZM93.4594 23.942V22.416L98.0794 16.2H100.459L95.9374 22.416L94.8314 22.094H102.545V23.942H93.4594ZM98.7374 26V23.942L98.8074 22.094V20.26H100.949V26H98.7374ZM106.556 26.168C105.874 26.168 105.198 26.0793 104.526 25.902C103.863 25.7153 103.294 25.454 102.818 25.118L103.714 23.382C104.087 23.6527 104.516 23.8673 105.002 24.026C105.496 24.1847 105.996 24.264 106.5 24.264C107.069 24.264 107.517 24.152 107.844 23.928C108.17 23.704 108.334 23.3913 108.334 22.99C108.334 22.738 108.268 22.514 108.138 22.318C108.007 22.122 107.774 21.9727 107.438 21.87C107.111 21.7673 106.649 21.716 106.052 21.716H103.546L104.05 16.2H110.028V18.02H104.862L106.038 16.984L105.688 20.918L104.512 19.882H106.584C107.554 19.882 108.334 20.0173 108.922 20.288C109.519 20.5493 109.953 20.9087 110.224 21.366C110.494 21.8233 110.63 22.3413 110.63 22.92C110.63 23.4987 110.485 24.0353 110.196 24.53C109.906 25.0153 109.458 25.412 108.852 25.72C108.254 26.0187 107.489 26.168 106.556 26.168ZM115.932 26.168C115.036 26.168 114.257 25.9813 113.594 25.608C112.941 25.2347 112.437 24.6887 112.082 23.97C111.727 23.2513 111.55 22.3647 111.55 21.31C111.55 20.1807 111.76 19.224 112.18 18.44C112.609 17.656 113.197 17.0587 113.944 16.648C114.7 16.2373 115.568 16.032 116.548 16.032C117.071 16.032 117.57 16.088 118.046 16.2C118.522 16.312 118.933 16.48 119.278 16.704L118.438 18.37C118.167 18.1833 117.878 18.0573 117.57 17.992C117.262 17.9173 116.94 17.88 116.604 17.88C115.755 17.88 115.083 18.1367 114.588 18.65C114.093 19.1633 113.846 19.924 113.846 20.932C113.846 21.1 113.846 21.2867 113.846 21.492C113.855 21.6973 113.883 21.9027 113.93 22.108L113.3 21.52C113.477 21.156 113.706 20.8527 113.986 20.61C114.266 20.358 114.597 20.1713 114.98 20.05C115.372 19.9193 115.801 19.854 116.268 19.854C116.903 19.854 117.472 19.98 117.976 20.232C118.48 20.484 118.881 20.8387 119.18 21.296C119.488 21.7533 119.642 22.29 119.642 22.906C119.642 23.5687 119.474 24.1473 119.138 24.642C118.811 25.1273 118.368 25.5053 117.808 25.776C117.257 26.0373 116.632 26.168 115.932 26.168ZM115.806 24.474C116.123 24.474 116.403 24.418 116.646 24.306C116.898 24.1847 117.094 24.012 117.234 23.788C117.374 23.564 117.444 23.3073 117.444 23.018C117.444 22.57 117.29 22.2153 116.982 21.954C116.683 21.6833 116.282 21.548 115.778 21.548C115.442 21.548 115.148 21.6133 114.896 21.744C114.644 21.8653 114.443 22.038 114.294 22.262C114.154 22.4767 114.084 22.7287 114.084 23.018C114.084 23.298 114.154 23.55 114.294 23.774C114.434 23.9887 114.63 24.1613 114.882 24.292C115.134 24.4133 115.442 24.474 115.806 24.474ZM121.991 26L125.939 17.068L126.527 18.048H121.249L122.257 16.984V19.644H120.241V16.2H128.095V17.67L124.455 26H121.991ZM132.932 26.168C132.111 26.168 131.392 26.0467 130.776 25.804C130.16 25.552 129.68 25.202 129.334 24.754C128.989 24.2967 128.816 23.7647 128.816 23.158C128.816 22.5513 128.984 22.038 129.32 21.618C129.666 21.1887 130.146 20.8667 130.762 20.652C131.378 20.428 132.102 20.316 132.932 20.316C133.772 20.316 134.5 20.428 135.116 20.652C135.742 20.8667 136.222 21.1887 136.558 21.618C136.904 22.038 137.076 22.5513 137.076 23.158C137.076 23.7647 136.904 24.2967 136.558 24.754C136.213 25.202 135.728 25.552 135.102 25.804C134.486 26.0467 133.763 26.168 132.932 26.168ZM132.932 24.502C133.502 24.502 133.95 24.376 134.276 24.124C134.612 23.872 134.78 23.5267 134.78 23.088C134.78 22.6493 134.612 22.3087 134.276 22.066C133.95 21.814 133.502 21.688 132.932 21.688C132.372 21.688 131.929 21.814 131.602 22.066C131.276 22.3087 131.112 22.6493 131.112 23.088C131.112 23.5267 131.276 23.872 131.602 24.124C131.929 24.376 132.372 24.502 132.932 24.502ZM132.932 21.464C132.176 21.464 131.514 21.3613 130.944 21.156C130.384 20.9507 129.946 20.652 129.628 20.26C129.32 19.8587 129.166 19.3827 129.166 18.832C129.166 18.2533 129.325 17.7587 129.642 17.348C129.96 16.928 130.403 16.606 130.972 16.382C131.542 16.1487 132.195 16.032 132.932 16.032C133.688 16.032 134.346 16.1487 134.906 16.382C135.476 16.606 135.919 16.928 136.236 17.348C136.563 17.7587 136.726 18.2533 136.726 18.832C136.726 19.3827 136.568 19.8587 136.25 20.26C135.942 20.652 135.504 20.9507 134.934 21.156C134.365 21.3613 133.698 21.464 132.932 21.464ZM132.932 20.134C133.408 20.134 133.782 20.0267 134.052 19.812C134.332 19.5973 134.472 19.3033 134.472 18.93C134.472 18.538 134.328 18.2347 134.038 18.02C133.758 17.8053 133.39 17.698 132.932 17.698C132.484 17.698 132.12 17.8053 131.84 18.02C131.56 18.2347 131.42 18.538 131.42 18.93C131.42 19.3033 131.556 19.5973 131.826 19.812C132.097 20.0267 132.466 20.134 132.932 20.134ZM141.558 16.032C142.464 16.032 143.243 16.2187 143.896 16.592C144.55 16.9653 145.054 17.5113 145.408 18.23C145.763 18.9393 145.94 19.826 145.94 20.89C145.94 22.0193 145.726 22.976 145.296 23.76C144.876 24.544 144.293 25.1413 143.546 25.552C142.8 25.9627 141.932 26.168 140.942 26.168C140.429 26.168 139.934 26.112 139.458 26C138.982 25.888 138.572 25.72 138.226 25.496L139.066 23.83C139.337 24.0167 139.626 24.1473 139.934 24.222C140.242 24.2873 140.564 24.32 140.9 24.32C141.74 24.32 142.408 24.0633 142.902 23.55C143.406 23.0367 143.658 22.276 143.658 21.268C143.658 21.1 143.654 20.9133 143.644 20.708C143.635 20.5027 143.612 20.2973 143.574 20.092L144.19 20.68C144.032 21.044 143.808 21.352 143.518 21.604C143.229 21.8467 142.893 22.0333 142.51 22.164C142.128 22.2853 141.698 22.346 141.222 22.346C140.597 22.346 140.028 22.22 139.514 21.968C139.01 21.716 138.604 21.3613 138.296 20.904C137.998 20.4467 137.848 19.91 137.848 19.294C137.848 18.622 138.012 18.0433 138.338 17.558C138.674 17.0727 139.122 16.6993 139.682 16.438C140.252 16.1673 140.877 16.032 141.558 16.032ZM141.698 17.726C141.372 17.726 141.087 17.7867 140.844 17.908C140.602 18.02 140.41 18.188 140.27 18.412C140.13 18.6267 140.06 18.8833 140.06 19.182C140.06 19.63 140.21 19.9893 140.508 20.26C140.816 20.5213 141.222 20.652 141.726 20.652C142.053 20.652 142.342 20.5913 142.594 20.47C142.856 20.3393 143.056 20.162 143.196 19.938C143.336 19.714 143.406 19.462 143.406 19.182C143.406 18.902 143.336 18.6547 143.196 18.44C143.066 18.216 142.874 18.0433 142.622 17.922C142.37 17.7913 142.062 17.726 141.698 17.726Z" fill="#04114E"/>
<path fill-rule="evenodd" clip-rule="evenodd" d="M40.0004 18.293C40.0004 21.769 37.1704 24.587 33.6804 24.587C33.0444 24.587 31.5944 24.441 30.8894 23.855L30.0074 24.733C29.4884 25.25 29.6284 25.402 29.8594 25.652C29.9554 25.757 30.0674 25.878 30.1544 26.051C30.1544 26.051 30.8894 27.075 30.1544 28.1C29.7134 28.685 28.4784 29.504 27.0684 28.1L26.7744 28.392C26.7744 28.392 27.6554 29.417 26.9214 30.442C26.4804 31.027 25.3044 31.612 24.2754 30.588L23.2474 31.612C22.5414 32.315 21.6794 31.905 21.3374 31.612L20.4544 30.734C19.6314 29.914 20.1114 29.026 20.4544 28.684L28.0964 21.074C28.0964 21.074 27.3614 19.904 27.3614 18.294C27.3614 14.818 30.1914 12 33.6814 12C37.1714 12 40.0004 14.818 40.0004 18.293ZM33.6814 20.489C34.2647 20.4901 34.8246 20.2594 35.2379 19.8478C35.6512 19.4362 35.8841 18.8773 35.8854 18.294C35.8849 18.0051 35.8275 17.7191 35.7165 17.4524C35.6054 17.1857 35.4429 16.9435 35.2383 16.7395C35.0336 16.5356 34.7908 16.374 34.5237 16.2639C34.2565 16.1539 33.9704 16.0975 33.6814 16.098C33.3925 16.0975 33.1064 16.1539 32.8392 16.2639C32.5721 16.374 32.3293 16.5356 32.1246 16.7395C31.92 16.9435 31.7575 17.1857 31.6464 17.4524C31.5354 17.7191 31.478 18.0051 31.4774 18.294C31.4788 18.8773 31.7117 19.4362 32.125 19.8478C32.5383 20.2594 33.0981 20.4901 33.6814 20.489Z" fill="#04114E"/>
</svg>
