<svg width="121" height="18" viewBox="0 0 121 18" fill="none" xmlns="http://www.w3.org/2000/svg">
<rect width="121" height="18" rx="5" fill="#86B6F6"/>
<path d="M7.504 12.096C7.056 12.096 6.62667 12.0373 6.216 11.92C5.80533 11.7973 5.47467 11.64 5.224 11.448L5.664 10.472C5.904 10.6427 6.18667 10.784 6.512 10.896C6.84267 11.0027 7.176 11.056 7.512 11.056C7.768 11.056 7.97333 11.032 8.128 10.984C8.288 10.9307 8.40533 10.8587 8.48 10.768C8.55467 10.6773 8.592 10.5733 8.592 10.456C8.592 10.3067 8.53333 10.1893 8.416 10.104C8.29867 10.0133 8.144 9.94133 7.952 9.888C7.76 9.82933 7.54667 9.776 7.312 9.728C7.08267 9.67467 6.85067 9.61067 6.616 9.536C6.38667 9.46133 6.176 9.36533 5.984 9.248C5.792 9.13067 5.63467 8.976 5.512 8.784C5.39467 8.592 5.336 8.34667 5.336 8.048C5.336 7.728 5.42133 7.43733 5.592 7.176C5.768 6.90933 6.02933 6.69867 6.376 6.544C6.728 6.384 7.168 6.304 7.696 6.304C8.048 6.304 8.39467 6.34667 8.736 6.432C9.07733 6.512 9.37867 6.63467 9.64 6.8L9.24 7.784C8.97867 7.63467 8.71733 7.52533 8.456 7.456C8.19467 7.38133 7.93867 7.344 7.688 7.344C7.43733 7.344 7.232 7.37333 7.072 7.432C6.912 7.49067 6.79733 7.568 6.728 7.664C6.65867 7.75467 6.624 7.86133 6.624 7.984C6.624 8.128 6.68267 8.24533 6.8 8.336C6.91733 8.42133 7.072 8.49067 7.264 8.544C7.456 8.59733 7.66667 8.65067 7.896 8.704C8.13067 8.75733 8.36267 8.81867 8.592 8.888C8.82667 8.95733 9.04 9.05067 9.232 9.168C9.424 9.28533 9.57867 9.44 9.696 9.632C9.81867 9.824 9.88 10.0667 9.88 10.36C9.88 10.6747 9.792 10.9627 9.616 11.224C9.44 11.4853 9.176 11.696 8.824 11.856C8.47733 12.016 8.03733 12.096 7.504 12.096ZM12.8136 12.064C12.3229 12.064 11.8909 11.968 11.5176 11.776C11.1496 11.584 10.8642 11.3227 10.6616 10.992C10.4589 10.656 10.3576 10.2747 10.3576 9.848C10.3576 9.416 10.4562 9.03467 10.6536 8.704C10.8562 8.368 11.1309 8.10667 11.4776 7.92C11.8242 7.728 12.2162 7.632 12.6536 7.632C13.0749 7.632 13.4536 7.72267 13.7896 7.904C14.1309 8.08 14.4002 8.336 14.5976 8.672C14.7949 9.00267 14.8936 9.4 14.8936 9.864C14.8936 9.912 14.8909 9.968 14.8856 10.032C14.8802 10.0907 14.8749 10.1467 14.8696 10.2H11.3736V9.472H14.2136L13.7336 9.688C13.7336 9.464 13.6882 9.26933 13.5976 9.104C13.5069 8.93867 13.3816 8.81067 13.2216 8.72C13.0616 8.624 12.8749 8.576 12.6616 8.576C12.4482 8.576 12.2589 8.624 12.0936 8.72C11.9336 8.81067 11.8082 8.94133 11.7176 9.112C11.6269 9.27733 11.5816 9.47467 11.5816 9.704V9.896C11.5816 10.1307 11.6322 10.3387 11.7336 10.52C11.8402 10.696 11.9869 10.832 12.1736 10.928C12.3656 11.0187 12.5896 11.064 12.8456 11.064C13.0749 11.064 13.2749 11.0293 13.4456 10.96C13.6216 10.8907 13.7816 10.7867 13.9256 10.648L14.5896 11.368C14.3922 11.592 14.1442 11.7653 13.8456 11.888C13.5469 12.0053 13.2029 12.064 12.8136 12.064ZM17.4844 12.064C16.9778 12.064 16.5831 11.936 16.3004 11.68C16.0178 11.4187 15.8764 11.032 15.8764 10.52V6.744H17.1244V10.504C17.1244 10.6853 17.1724 10.8267 17.2684 10.928C17.3644 11.024 17.4951 11.072 17.6604 11.072C17.8578 11.072 18.0258 11.0187 18.1644 10.912L18.5004 11.792C18.3724 11.8827 18.2178 11.952 18.0364 12C17.8604 12.0427 17.6764 12.064 17.4844 12.064ZM15.2124 8.752V7.792H18.1964V8.752H15.2124ZM20.8673 12.064C20.3606 12.064 19.9659 11.936 19.6833 11.68C19.4006 11.4187 19.2593 11.032 19.2593 10.52V6.744H20.5073V10.504C20.5073 10.6853 20.5553 10.8267 20.6513 10.928C20.7473 11.024 20.8779 11.072 21.0433 11.072C21.2406 11.072 21.4086 11.0187 21.5473 10.912L21.8833 11.792C21.7553 11.8827 21.6006 11.952 21.4193 12C21.2433 12.0427 21.0593 12.064 20.8673 12.064ZM18.5953 8.752V7.792H21.5793V8.752H18.5953ZM22.5838 12V7.696H23.8318V12H22.5838ZM23.2078 7.096C22.9785 7.096 22.7918 7.02933 22.6478 6.896C22.5038 6.76267 22.4318 6.59733 22.4318 6.4C22.4318 6.20267 22.5038 6.03733 22.6478 5.904C22.7918 5.77067 22.9785 5.704 23.2078 5.704C23.4371 5.704 23.6238 5.768 23.7678 5.896C23.9118 6.01867 23.9838 6.17867 23.9838 6.376C23.9838 6.584 23.9118 6.75733 23.7678 6.896C23.6291 7.02933 23.4425 7.096 23.2078 7.096ZM27.6061 7.632C27.9474 7.632 28.2514 7.70133 28.5181 7.84C28.7901 7.97333 29.0034 8.18133 29.1581 8.464C29.3127 8.74133 29.3901 9.09867 29.3901 9.536V12H28.1421V9.728C28.1421 9.38133 28.0647 9.12533 27.9101 8.96C27.7607 8.79467 27.5474 8.712 27.2701 8.712C27.0727 8.712 26.8941 8.75467 26.7341 8.84C26.5794 8.92 26.4567 9.04533 26.3661 9.216C26.2807 9.38667 26.2381 9.60533 26.2381 9.872V12H24.9901V7.696H26.1821V8.888L25.9581 8.528C26.1127 8.24 26.3341 8.01867 26.6221 7.864C26.9101 7.70933 27.2381 7.632 27.6061 7.632ZM32.5766 13.616C32.1712 13.616 31.7792 13.5653 31.4006 13.464C31.0272 13.368 30.7152 13.2213 30.4646 13.024L30.9606 12.128C31.1419 12.2773 31.3712 12.3947 31.6486 12.48C31.9312 12.5707 32.2086 12.616 32.4806 12.616C32.9232 12.616 33.2432 12.5173 33.4406 12.32C33.6432 12.1227 33.7446 11.8293 33.7446 11.44V10.792L33.8246 9.712L33.8086 8.624V7.696H34.9926V11.28C34.9926 12.08 34.7846 12.6693 34.3686 13.048C33.9526 13.4267 33.3552 13.616 32.5766 13.616ZM32.3846 11.792C31.9846 11.792 31.6219 11.7067 31.2966 11.536C30.9766 11.36 30.7179 11.1173 30.5206 10.808C30.3286 10.4933 30.2326 10.128 30.2326 9.712C30.2326 9.29067 30.3286 8.92533 30.5206 8.616C30.7179 8.30133 30.9766 8.05867 31.2966 7.888C31.6219 7.71733 31.9846 7.632 32.3846 7.632C32.7472 7.632 33.0672 7.70667 33.3446 7.856C33.6219 8 33.8379 8.22667 33.9926 8.536C34.1472 8.84 34.2246 9.232 34.2246 9.712C34.2246 10.1867 34.1472 10.5787 33.9926 10.888C33.8379 11.192 33.6219 11.4187 33.3446 11.568C33.0672 11.7173 32.7472 11.792 32.3846 11.792ZM32.6326 10.768C32.8512 10.768 33.0459 10.7253 33.2166 10.64C33.3872 10.5493 33.5206 10.424 33.6166 10.264C33.7126 10.104 33.7606 9.92 33.7606 9.712C33.7606 9.49867 33.7126 9.31467 33.6166 9.16C33.5206 9 33.3872 8.87733 33.2166 8.792C33.0459 8.70133 32.8512 8.656 32.6326 8.656C32.4139 8.656 32.2192 8.70133 32.0486 8.792C31.8779 8.87733 31.7419 9 31.6406 9.16C31.5446 9.31467 31.4966 9.49867 31.4966 9.712C31.4966 9.92 31.5446 10.104 31.6406 10.264C31.7419 10.424 31.8779 10.5493 32.0486 10.64C32.2192 10.7253 32.4139 10.768 32.6326 10.768ZM43.9318 7.632C44.2731 7.632 44.5744 7.70133 44.8358 7.84C45.1024 7.97333 45.3104 8.18133 45.4598 8.464C45.6144 8.74133 45.6918 9.09867 45.6918 9.536V12H44.4438V9.728C44.4438 9.38133 44.3718 9.12533 44.2278 8.96C44.0838 8.79467 43.8811 8.712 43.6198 8.712C43.4384 8.712 43.2758 8.75467 43.1318 8.84C42.9878 8.92 42.8758 9.04267 42.7958 9.208C42.7158 9.37333 42.6758 9.584 42.6758 9.84V12H41.4278V9.728C41.4278 9.38133 41.3558 9.12533 41.2118 8.96C41.0731 8.79467 40.8731 8.712 40.6118 8.712C40.4304 8.712 40.2678 8.75467 40.1238 8.84C39.9798 8.92 39.8678 9.04267 39.7878 9.208C39.7078 9.37333 39.6678 9.584 39.6678 9.84V12H38.4198V7.696H39.6118V8.872L39.3878 8.528C39.5371 8.23467 39.7478 8.01333 40.0198 7.864C40.2971 7.70933 40.6118 7.632 40.9638 7.632C41.3584 7.632 41.7024 7.73333 41.9958 7.936C42.2944 8.13333 42.4918 8.43733 42.5878 8.848L42.1478 8.728C42.2918 8.392 42.5211 8.12533 42.8358 7.928C43.1558 7.73067 43.5211 7.632 43.9318 7.632ZM49.4504 12V11.16L49.3704 10.976V9.472C49.3704 9.20533 49.2877 8.99733 49.1224 8.848C48.9624 8.69867 48.7144 8.624 48.3784 8.624C48.149 8.624 47.9224 8.66133 47.6984 8.736C47.4797 8.80533 47.293 8.90133 47.1384 9.024L46.6904 8.152C46.925 7.98667 47.2077 7.85867 47.5384 7.768C47.869 7.67733 48.205 7.632 48.5464 7.632C49.2024 7.632 49.7117 7.78667 50.0744 8.096C50.437 8.40533 50.6184 8.888 50.6184 9.544V12H49.4504ZM48.1384 12.064C47.8024 12.064 47.5144 12.008 47.2744 11.896C47.0344 11.7787 46.8504 11.6213 46.7224 11.424C46.5944 11.2267 46.5304 11.0053 46.5304 10.76C46.5304 10.504 46.5917 10.28 46.7144 10.088C46.8424 9.896 47.0424 9.74667 47.3144 9.64C47.5864 9.528 47.941 9.472 48.3784 9.472H49.5224V10.2H48.5144C48.221 10.2 48.0184 10.248 47.9064 10.344C47.7997 10.44 47.7464 10.56 47.7464 10.704C47.7464 10.864 47.8077 10.992 47.9304 11.088C48.0584 11.1787 48.2317 11.224 48.4504 11.224C48.6584 11.224 48.845 11.176 49.0104 11.08C49.1757 10.9787 49.2957 10.832 49.3704 10.64L49.5624 11.216C49.4717 11.4933 49.3064 11.704 49.0664 11.848C48.8264 11.992 48.517 12.064 48.1384 12.064ZM54.2919 12.064C53.9292 12.064 53.6119 11.984 53.3399 11.824C53.0679 11.664 52.8545 11.4213 52.6999 11.096C52.5505 10.7653 52.4759 10.3493 52.4759 9.848C52.4759 9.34133 52.5479 8.92533 52.6919 8.6C52.8359 8.27467 53.0439 8.032 53.3159 7.872C53.5879 7.712 53.9132 7.632 54.2919 7.632C54.6972 7.632 55.0599 7.72533 55.3799 7.912C55.7052 8.09333 55.9612 8.34933 56.1479 8.68C56.3399 9.01067 56.4359 9.4 56.4359 9.848C56.4359 10.3013 56.3399 10.6933 56.1479 11.024C55.9612 11.3547 55.7052 11.6107 55.3799 11.792C55.0599 11.9733 54.6972 12.064 54.2919 12.064ZM51.7479 13.552V7.696H52.9399V8.576L52.9159 9.856L52.9959 11.128V13.552H51.7479ZM54.0759 11.04C54.2839 11.04 54.4679 10.992 54.6279 10.896C54.7932 10.8 54.9239 10.664 55.0199 10.488C55.1212 10.3067 55.1719 10.0933 55.1719 9.848C55.1719 9.59733 55.1212 9.384 55.0199 9.208C54.9239 9.032 54.7932 8.896 54.6279 8.8C54.4679 8.704 54.2839 8.656 54.0759 8.656C53.8679 8.656 53.6812 8.704 53.5159 8.8C53.3505 8.896 53.2199 9.032 53.1239 9.208C53.0279 9.384 52.9799 9.59733 52.9799 9.848C52.9799 10.0933 53.0279 10.3067 53.1239 10.488C53.2199 10.664 53.3505 10.8 53.5159 10.896C53.6812 10.992 53.8679 11.04 54.0759 11.04ZM58.7193 12.064C58.3513 12.064 57.9966 12.0213 57.6553 11.936C57.3193 11.8453 57.0526 11.7333 56.8553 11.6L57.2713 10.704C57.4686 10.8267 57.7006 10.928 57.9673 11.008C58.2393 11.0827 58.506 11.12 58.7673 11.12C59.0553 11.12 59.258 11.0853 59.3753 11.016C59.498 10.9467 59.5593 10.8507 59.5593 10.728C59.5593 10.6267 59.5113 10.552 59.4153 10.504C59.3246 10.4507 59.202 10.4107 59.0473 10.384C58.8926 10.3573 58.722 10.3307 58.5353 10.304C58.354 10.2773 58.17 10.2427 57.9833 10.2C57.7966 10.152 57.626 10.0827 57.4713 9.992C57.3166 9.90133 57.1913 9.77867 57.0953 9.624C57.0046 9.46933 56.9593 9.26933 56.9593 9.024C56.9593 8.752 57.0366 8.512 57.1913 8.304C57.3513 8.096 57.5806 7.93333 57.8793 7.816C58.178 7.69333 58.5353 7.632 58.9513 7.632C59.2446 7.632 59.5433 7.664 59.8473 7.728C60.1513 7.792 60.4046 7.88533 60.6073 8.008L60.1913 8.896C59.9833 8.77333 59.7726 8.69067 59.5593 8.648C59.3513 8.6 59.1486 8.576 58.9513 8.576C58.674 8.576 58.4713 8.61333 58.3433 8.688C58.2153 8.76267 58.1513 8.85867 58.1513 8.976C58.1513 9.08267 58.1966 9.16267 58.2873 9.216C58.3833 9.26933 58.5086 9.312 58.6633 9.344C58.818 9.376 58.986 9.40533 59.1673 9.432C59.354 9.45333 59.5406 9.488 59.7273 9.536C59.914 9.584 60.082 9.65333 60.2313 9.744C60.386 9.82933 60.5113 9.94933 60.6073 10.104C60.7033 10.2533 60.7513 10.4507 60.7513 10.696C60.7513 10.9627 60.6713 11.2 60.5113 11.408C60.3513 11.6107 60.1193 11.7707 59.8153 11.888C59.5166 12.0053 59.1513 12.064 58.7193 12.064ZM63.7869 12V7.696H64.9789V8.912L64.8109 8.56C64.9389 8.256 65.1443 8.02667 65.4269 7.872C65.7096 7.712 66.0536 7.632 66.4589 7.632V8.784C66.4056 8.77867 66.3576 8.776 66.3149 8.776C66.2723 8.77067 66.2269 8.768 66.1789 8.768C65.8376 8.768 65.5603 8.86667 65.3469 9.064C65.1389 9.256 65.0349 9.55733 65.0349 9.968V12H63.7869ZM69.0483 12.064C68.6909 12.064 68.3709 11.9947 68.0883 11.856C67.8109 11.7173 67.5949 11.5067 67.4403 11.224C67.2856 10.936 67.2083 10.5707 67.2083 10.128V7.696H68.4563V9.944C68.4563 10.3013 68.5309 10.5653 68.6803 10.736C68.8349 10.9013 69.0509 10.984 69.3283 10.984C69.5203 10.984 69.6909 10.944 69.8403 10.864C69.9896 10.7787 70.1069 10.6507 70.1923 10.48C70.2776 10.304 70.3203 10.0853 70.3203 9.824V7.696H71.5683V12H70.3843V10.816L70.6003 11.16C70.4563 11.4587 70.2429 11.6853 69.9603 11.84C69.6829 11.9893 69.3789 12.064 69.0483 12.064ZM78.2364 7.632C78.5778 7.632 78.8791 7.70133 79.1404 7.84C79.4071 7.97333 79.6151 8.18133 79.7644 8.464C79.9191 8.74133 79.9964 9.09867 79.9964 9.536V12H78.7484V9.728C78.7484 9.38133 78.6764 9.12533 78.5324 8.96C78.3884 8.79467 78.1858 8.712 77.9244 8.712C77.7431 8.712 77.5804 8.75467 77.4364 8.84C77.2924 8.92 77.1804 9.04267 77.1004 9.208C77.0204 9.37333 76.9804 9.584 76.9804 9.84V12H75.7324V9.728C75.7324 9.38133 75.6604 9.12533 75.5164 8.96C75.3778 8.79467 75.1778 8.712 74.9164 8.712C74.7351 8.712 74.5724 8.75467 74.4284 8.84C74.2844 8.92 74.1724 9.04267 74.0924 9.208C74.0124 9.37333 73.9724 9.584 73.9724 9.84V12H72.7244V7.696H73.9164V8.872L73.6924 8.528C73.8418 8.23467 74.0524 8.01333 74.3244 7.864C74.6018 7.70933 74.9164 7.632 75.2684 7.632C75.6631 7.632 76.0071 7.73333 76.3004 7.936C76.5991 8.13333 76.7964 8.43733 76.8924 8.848L76.4524 8.728C76.5964 8.392 76.8258 8.12533 77.1404 7.928C77.4604 7.73067 77.8258 7.632 78.2364 7.632ZM83.7551 12V11.16L83.6751 10.976V9.472C83.6751 9.20533 83.5924 8.99733 83.4271 8.848C83.2671 8.69867 83.0191 8.624 82.6831 8.624C82.4537 8.624 82.2271 8.66133 82.0031 8.736C81.7844 8.80533 81.5977 8.90133 81.4431 9.024L80.9951 8.152C81.2297 7.98667 81.5124 7.85867 81.8431 7.768C82.1737 7.67733 82.5097 7.632 82.8511 7.632C83.5071 7.632 84.0164 7.78667 84.3791 8.096C84.7417 8.40533 84.9231 8.888 84.9231 9.544V12H83.7551ZM82.4431 12.064C82.1071 12.064 81.8191 12.008 81.5791 11.896C81.3391 11.7787 81.1551 11.6213 81.0271 11.424C80.8991 11.2267 80.8351 11.0053 80.8351 10.76C80.8351 10.504 80.8964 10.28 81.0191 10.088C81.1471 9.896 81.3471 9.74667 81.6191 9.64C81.8911 9.528 82.2457 9.472 82.6831 9.472H83.8271V10.2H82.8191C82.5257 10.2 82.3231 10.248 82.2111 10.344C82.1044 10.44 82.0511 10.56 82.0511 10.704C82.0511 10.864 82.1124 10.992 82.2351 11.088C82.3631 11.1787 82.5364 11.224 82.7551 11.224C82.9631 11.224 83.1497 11.176 83.3151 11.08C83.4804 10.9787 83.6004 10.832 83.6751 10.64L83.8671 11.216C83.7764 11.4933 83.6111 11.704 83.3711 11.848C83.1311 11.992 82.8217 12.064 82.4431 12.064ZM88.6686 7.632C89.0099 7.632 89.3139 7.70133 89.5806 7.84C89.8526 7.97333 90.0659 8.18133 90.2206 8.464C90.3752 8.74133 90.4526 9.09867 90.4526 9.536V12H89.2046V9.728C89.2046 9.38133 89.1272 9.12533 88.9726 8.96C88.8232 8.79467 88.6099 8.712 88.3326 8.712C88.1352 8.712 87.9566 8.75467 87.7966 8.84C87.6419 8.92 87.5192 9.04533 87.4286 9.216C87.3432 9.38667 87.3006 9.60533 87.3006 9.872V12H86.0526V6.064H87.3006V8.888L87.0206 8.528C87.1752 8.24 87.3966 8.01867 87.6846 7.864C87.9726 7.70933 88.3006 7.632 88.6686 7.632ZM93.2014 12L95.6974 6.4H96.9774L99.4814 12H98.1214L96.0734 7.056H96.5854L94.5294 12H93.2014ZM94.4494 10.8L94.7934 9.816H97.6734L98.0254 10.8H94.4494ZM102.59 7.632C102.932 7.632 103.236 7.70133 103.502 7.84C103.774 7.97333 103.988 8.18133 104.142 8.464C104.297 8.74133 104.374 9.09867 104.374 9.536V12H103.126V9.728C103.126 9.38133 103.049 9.12533 102.894 8.96C102.745 8.79467 102.532 8.712 102.254 8.712C102.057 8.712 101.878 8.75467 101.718 8.84C101.564 8.92 101.441 9.04533 101.35 9.216C101.265 9.38667 101.222 9.60533 101.222 9.872V12H99.9744V7.696H101.166V8.888L100.942 8.528C101.097 8.24 101.318 8.01867 101.606 7.864C101.894 7.70933 102.222 7.632 102.59 7.632ZM107.385 12.064C106.98 12.064 106.614 11.9733 106.289 11.792C105.964 11.6053 105.705 11.3467 105.513 11.016C105.326 10.6853 105.233 10.296 105.233 9.848C105.233 9.39467 105.326 9.00267 105.513 8.672C105.705 8.34133 105.964 8.08533 106.289 7.904C106.614 7.72267 106.98 7.632 107.385 7.632C107.748 7.632 108.065 7.712 108.337 7.872C108.609 8.032 108.82 8.27467 108.969 8.6C109.118 8.92533 109.193 9.34133 109.193 9.848C109.193 10.3493 109.121 10.7653 108.977 11.096C108.833 11.4213 108.625 11.664 108.353 11.824C108.086 11.984 107.764 12.064 107.385 12.064ZM107.601 11.04C107.804 11.04 107.988 10.992 108.153 10.896C108.318 10.8 108.449 10.664 108.545 10.488C108.646 10.3067 108.697 10.0933 108.697 9.848C108.697 9.59733 108.646 9.384 108.545 9.208C108.449 9.032 108.318 8.896 108.153 8.8C107.988 8.704 107.804 8.656 107.601 8.656C107.393 8.656 107.206 8.704 107.041 8.8C106.876 8.896 106.742 9.032 106.641 9.208C106.545 9.384 106.497 9.59733 106.497 9.848C106.497 10.0933 106.545 10.3067 106.641 10.488C106.742 10.664 106.876 10.8 107.041 10.896C107.206 10.992 107.393 11.04 107.601 11.04ZM108.729 12V11.12L108.753 9.84L108.673 8.568V6.064H109.921V12H108.729ZM113.716 12V11.16L113.636 10.976V9.472C113.636 9.20533 113.553 8.99733 113.388 8.848C113.228 8.69867 112.98 8.624 112.644 8.624C112.415 8.624 112.188 8.66133 111.964 8.736C111.745 8.80533 111.559 8.90133 111.404 9.024L110.956 8.152C111.191 7.98667 111.473 7.85867 111.804 7.768C112.135 7.67733 112.471 7.632 112.812 7.632C113.468 7.632 113.977 7.78667 114.34 8.096C114.703 8.40533 114.884 8.888 114.884 9.544V12H113.716ZM112.404 12.064C112.068 12.064 111.78 12.008 111.54 11.896C111.3 11.7787 111.116 11.6213 110.988 11.424C110.86 11.2267 110.796 11.0053 110.796 10.76C110.796 10.504 110.857 10.28 110.98 10.088C111.108 9.896 111.308 9.74667 111.58 9.64C111.852 9.528 112.207 9.472 112.644 9.472H113.788V10.2H112.78C112.487 10.2 112.284 10.248 112.172 10.344C112.065 10.44 112.012 10.56 112.012 10.704C112.012 10.864 112.073 10.992 112.196 11.088C112.324 11.1787 112.497 11.224 112.716 11.224C112.924 11.224 113.111 11.176 113.276 11.08C113.441 10.9787 113.561 10.832 113.636 10.64L113.828 11.216C113.737 11.4933 113.572 11.704 113.332 11.848C113.092 11.992 112.783 12.064 112.404 12.064Z" fill="white"/>
</svg>
